<svg xmlns="http://www.w3.org/2000/svg" xmlns:xlink="http://www.w3.org/1999/xlink" width="60" height="125" viewBox="0 0 60 125">
  <defs>
    <clipPath id="clip-path">
      <rect id="Rectangle_3273" data-name="Rectangle 3273" width="60" height="125" fill="#fff" stroke="#707070" stroke-width="1"/>
    </clipPath>
  </defs>
  <g id="Mask_Group_653" data-name="Mask Group 653" clip-path="url(#clip-path)">
    <g id="Group_8531" data-name="Group 8531" transform="translate(-18.955 -4)">
      <path id="Path_30805" data-name="Path 30805" d="M29.555,120a10.475,10.475,0,0,0,0-1.96,15.433,15.433,0,0,0-1.347-5.225,11.977,11.977,0,0,0-3.47-4.45,8.651,8.651,0,0,0-2.9-1.551.58.58,0,0,0-.245-.082.634.634,0,0,1-.327-.245,22.608,22.608,0,0,1-1.347-2.082,56.367,56.367,0,0,1-2.9-5.634,10.407,10.407,0,0,0-.531-1.184c-.041-.082-.041-.122-.082-.2a.1.1,0,0,1,.163-.041,2.947,2.947,0,0,1,.816.367c0,.082.041.163.041.245a5.537,5.537,0,0,0,2.041,3.878,8.693,8.693,0,0,0,3.592,1.878,17.268,17.268,0,0,0,2.531.449c1.225.122,2.409.286,3.633.408a1.673,1.673,0,0,1,.449.041.541.541,0,0,0-.122-.449,14.466,14.466,0,0,0-1.715-2.98A10.519,10.519,0,0,0,22.085,97.3a7.277,7.277,0,0,0-2.653-.286,6.512,6.512,0,0,0-1.551.286.8.8,0,0,1-.531-.041,3.292,3.292,0,0,0-1.225-.531,61.111,61.111,0,0,1-3.511-11.8,2.28,2.28,0,0,1,.98.612q0,.122,0,.245A5.937,5.937,0,0,0,15.023,90.4a8.3,8.3,0,0,0,2.368,1.919,19.5,19.5,0,0,0,3.266,1.47c1.021.367,2,.694,3.021,1.021.286.122.572.2.9.327a.605.605,0,0,0,.286.041c-.041-.163-.041-.286-.082-.408A15.481,15.481,0,0,0,22,89.138a11.7,11.7,0,0,0-4.164-3.307,6.924,6.924,0,0,0-3.511-.653h-.286c-.163.041-.245-.041-.367-.122a3.672,3.672,0,0,0-.408-.367c-.286-.2-.531-.367-.857-.572a72.026,72.026,0,0,1-1.184-14.533,1.927,1.927,0,0,1,.816.816c-.082.286-.163.572-.245.9a7.249,7.249,0,0,0,.531,4.98A12.387,12.387,0,0,0,14,78.728,23.55,23.55,0,0,0,16.778,81.3c1.184.9,2.409,1.8,3.592,2.694a2.866,2.866,0,0,0,.408.327c.041.041.082.041.163.082,0-.082.041-.163.041-.245a17.01,17.01,0,0,0-.163-2.49A17.657,17.657,0,0,0,20,78.075a13.814,13.814,0,0,0-2.613-4.654,10.675,10.675,0,0,0-1.959-1.878,8.07,8.07,0,0,0-2.817-1.306.808.808,0,0,1-.571-.408,4.99,4.99,0,0,0-.939-1.184,68.2,68.2,0,0,1,1.1-10.41,30.534,30.534,0,0,1,1.225-5.307l.122.122.367.735a.442.442,0,0,1,0,.449,1.279,1.279,0,0,0-.2.408,7.843,7.843,0,0,0-.776,2.858,11.542,11.542,0,0,0,.163,3.143,12.522,12.522,0,0,0,1.1,3.143,25.535,25.535,0,0,0,2.327,3.8c.735,1.021,1.47,2,2.2,3.021a3.528,3.528,0,0,1,.408.653c.041.082.122.122.163.2.122-.041.122-.122.163-.2A18.45,18.45,0,0,0,20,67.91a18.617,18.617,0,0,0-.286-5.429,17.146,17.146,0,0,0-2-5.266,9.094,9.094,0,0,0-2.776-2.939c-.041,0-.041-.041-.082-.041a1.15,1.15,0,0,1-.612-.816,4.785,4.785,0,0,0-.49-1.266.311.311,0,0,1,0-.327c.163-.612.327-1.266.531-1.878.286-.9.571-1.8.857-2.653.449-1.347.98-2.694,1.551-4l1.592-3.552c.286-.612.612-1.225.9-1.837.041-.082.122-.163.163-.245a3.819,3.819,0,0,1,.2,1.388c0,.041-.041.041-.041.082a3.661,3.661,0,0,0-1.225,1.51,10.076,10.076,0,0,0-.776,2.449,11.653,11.653,0,0,0,.041,4.123A24.467,24.467,0,0,0,18.819,51.7c.49,1.266.98,2.49,1.47,3.756.286.735.572,1.51.857,2.245a2.816,2.816,0,0,1,.122.327c.082-.082.163-.163.163-.245.245-.531.449-1.061.653-1.592a21.526,21.526,0,0,0,1.184-4.776,15.8,15.8,0,0,0,.041-4.164,19.719,19.719,0,0,0-.816-4.041,10.749,10.749,0,0,0-2.123-3.837,1.214,1.214,0,0,1-.327-.816,7.17,7.17,0,0,0-.245-1.592.475.475,0,0,1,.082-.408c.163-.327.367-.612.531-.939A63.9,63.9,0,0,1,25.6,28.026a50.047,50.047,0,0,1,3.347-3.837,1.779,1.779,0,0,1,.286-.245,2.92,2.92,0,0,1-.163,1.266,4.125,4.125,0,0,0-1.51,1.143,9.591,9.591,0,0,0-.776,1.021,15.614,15.614,0,0,0-1.306,2.613,9.018,9.018,0,0,0-.449,2.082,26.693,26.693,0,0,0-.122,4.776c.082,1.592.286,3.225.449,4.817.082.776.123,1.551.2,2.286a.245.245,0,0,0,.041.163c.122.041.2-.082.245-.163a21.732,21.732,0,0,0,1.47-1.919A23.722,23.722,0,0,0,29.229,38.4a18.041,18.041,0,0,0,1.143-3.837,21.86,21.86,0,0,0,.327-3.633,14.049,14.049,0,0,0-.939-5.185,1.576,1.576,0,0,1-.122-.857c.082-.449.122-.939.163-1.388a.719.719,0,0,1,.245-.531c.449-.408.857-.857,1.306-1.266a54.066,54.066,0,0,1,4.735-3.96,48.78,48.78,0,0,1,4.572-2.98,3.787,3.787,0,0,1,.408-.2v.2a9.185,9.185,0,0,0-.327.98c-.082.041-.122.082-.163.082a4.928,4.928,0,0,0-2.123.9A9.334,9.334,0,0,0,35.8,19.576a7.849,7.849,0,0,0-.49,1.021,21.411,21.411,0,0,0-1.225,3.878c-.327,1.51-.572,3.021-.776,4.531-.163,1.266-.408,2.531-.612,3.8v.2c.2.041.286-.082.408-.163a12.461,12.461,0,0,0,2-1.551,17.564,17.564,0,0,0,3.756-4.572,20.18,20.18,0,0,0,1.347-2.858,22.764,22.764,0,0,0,.735-2.368,12.569,12.569,0,0,0,.327-4.45,3.484,3.484,0,0,1,.163-1.715,6.3,6.3,0,0,0,.286-.939.519.519,0,0,1,.286-.367C42.7,13.7,43.354,13.33,44.048,13a39.633,39.633,0,0,1,8-2.817c.939-.2,1.878-.367,2.817-.572.122,0,.2-.041.327-.041a1.126,1.126,0,0,1-.49.9h-.041a3.056,3.056,0,0,0-2,.041,8.928,8.928,0,0,0-3.388,1.878,7.565,7.565,0,0,0-1.184,1.347,25.155,25.155,0,0,0-2.409,4.041c-.694,1.51-1.388,3.021-2.082,4.572a7.61,7.61,0,0,1-.408.816c-.082.163-.122.286-.2.49.163,0,.245.041.327,0a12.206,12.206,0,0,0,1.306-.327,15.111,15.111,0,0,0,4.45-2.2,16.321,16.321,0,0,0,4.654-5.593,13.7,13.7,0,0,0,1.1-3.307c.082-.327.122-.694.2-1.021a.58.58,0,0,1,.082-.245c.245-.449.49-.857.735-1.306a.717.717,0,0,1,.163-.2c.612-.082,1.225-.122,1.837-.2,1.225-.122,2.49-.2,3.715-.2a35.547,35.547,0,0,1,4.164.2h.163a.552.552,0,0,0,.653-.286,1.572,1.572,0,0,0,.327-.694.59.59,0,0,0-.286-.082c-.98-.082-1.959-.2-2.9-.286a37.437,37.437,0,0,0-6.042.122.947.947,0,0,1-.735-.163,7.847,7.847,0,0,0-1.021-.49,1.773,1.773,0,0,0-.286-.163,1.449,1.449,0,0,1-.082-.408A6.494,6.494,0,0,0,53.559,3.41,8.8,8.8,0,0,0,50.7,1.573c-.245-.122-.49-.2-.735-.327A1.467,1.467,0,0,1,49.559.96C48.742.715,47.926.511,47.109.266a1,1,0,0,1-.49,0A16.058,16.058,0,0,0,44.211.021a16.486,16.486,0,0,0-3.47.163,6.59,6.59,0,0,0-1.47.408c-.123.041-.245.122-.367.163-.122.082-.245.122-.327.286.041.082.122.163.163.245a17.842,17.842,0,0,0,1.51,1.959A17.7,17.7,0,0,0,43.435,6.1a14.045,14.045,0,0,0,2.776,1.51,13.4,13.4,0,0,0,2.49.735,11.78,11.78,0,0,0,3.592.041,20.344,20.344,0,0,0,2.653-.531.7.7,0,0,1,.694.082,2.341,2.341,0,0,1,.286.163c-.082.163-.245.122-.367.122A41.233,41.233,0,0,0,46.211,10.8l-2.817,1.225a1.026,1.026,0,0,1-.612.082c-.327-.082-.653-.082-.98-.163-.122-.041-.245-.041-.408-.082a1.223,1.223,0,0,0-.163-.327A6.8,6.8,0,0,0,40.5,10.39a6.207,6.207,0,0,0-2.9-1.837,12.8,12.8,0,0,0-2.49-.49A16.476,16.476,0,0,0,30,8.39c-.857.2-1.674.449-2.531.694a11,11,0,0,0-2.817,1.306,6.313,6.313,0,0,0-.98.776.889.889,0,0,0-.163.2,2.644,2.644,0,0,0,.367.327c.531.408,1.061.776,1.633,1.143A15.344,15.344,0,0,0,32,15.167a12.811,12.811,0,0,0,3.307-.041,13.084,13.084,0,0,0,4.123-1.47c.572-.286,1.1-.653,1.633-.98a.78.78,0,0,1,.327-.122,1.206,1.206,0,0,1,.531.082c0,.041,0,.082-.041.082a3.776,3.776,0,0,1-.327.2,42.929,42.929,0,0,0-4.123,2.531,50.31,50.31,0,0,0-6.123,4.9,1.737,1.737,0,0,1-.939.572c-.041,0-.082.041-.122.041-.449.163-.9.286-1.347.408-.082-.082-.2-.163-.286-.245a5.343,5.343,0,0,0-1.511-.98,8.251,8.251,0,0,0-2.817-.572,10.224,10.224,0,0,0-4.123.857,22.643,22.643,0,0,0-3.878,2.2,17.223,17.223,0,0,0-3.062,2.654,7.071,7.071,0,0,0-1.347,1.919c-.041.122-.082.2-.122.327a.689.689,0,0,0,.2.082c.449.122.857.245,1.306.367a15.617,15.617,0,0,0,2.409.408,11.755,11.755,0,0,0,3.96-.327,15.612,15.612,0,0,0,4.94-2.123,16.543,16.543,0,0,0,2.776-2.286c.49-.49.939-.98,1.429-1.51a1,1,0,0,1,.9-.327c-.082.082-.122.163-.163.2-.449.49-.939.98-1.429,1.47a57.682,57.682,0,0,0-4.327,5.144c-1.306,1.674-2.49,3.429-3.633,5.225a1.384,1.384,0,0,1-.572.612c-.122.041-.2.163-.327.245-.327.245-.612.531-.939.776l-.367-.122a4.939,4.939,0,0,0-3.062-.367,7.711,7.711,0,0,0-2.653.98,16.962,16.962,0,0,0-3.633,2.735A32.456,32.456,0,0,0,5.8,41.743,19.953,19.953,0,0,0,3.96,44.355a8.589,8.589,0,0,0-.531,1.061.259.259,0,0,1-.245.2c-.122.408-.245.816-.327,1.225a.671.671,0,0,0,.408.082,14.478,14.478,0,0,0,2.939-.367,19.508,19.508,0,0,0,5.511-2.409,17.281,17.281,0,0,0,3.8-3.307,22.04,22.04,0,0,0,2.082-3.021c.286-.49.531-1.021.816-1.51a1.2,1.2,0,0,1,.612-.572.768.768,0,0,1-.2.449c-.286.531-.612,1.061-.857,1.633-.735,1.51-1.429,3.021-2.082,4.572-.612,1.47-1.143,2.98-1.633,4.491-.2.653-.408,1.306-.612,1.919-.041.082-.082.2-.122.286-.367.49-.776.939-1.184,1.429-.041.041-.082.082-.122.082h-.122a5.1,5.1,0,0,0-3.1.531,8.135,8.135,0,0,0-2.245,1.633A23.5,23.5,0,0,0,3.47,57.01a28.429,28.429,0,0,0-1.8,3.511,21.007,21.007,0,0,0-1.347,3.8C.2,64.889.122,65.461,0,66.032a.8.8,0,0,0,.041.286c.163-.041.245-.041.367-.082a19.1,19.1,0,0,0,2.613-1.225A18.46,18.46,0,0,0,7.634,61.3a18.133,18.133,0,0,0,4-6.981c.286-.939.531-1.878.735-2.858a1.569,1.569,0,0,1,.531-.9c.041-.041.082-.041.163,0a90.091,90.091,0,0,0-2.572,13.472c-.122.163-.245.286-.327.408-.2.408-.408.816-.612,1.184-.082.122-.122.245-.2.367-.122.041-.2.041-.327.082a5.223,5.223,0,0,0-2.123.939,8.381,8.381,0,0,0-2.082,2.245A19.105,19.105,0,0,0,2.939,73.3a33.825,33.825,0,0,0-1.021,3.47,26.856,26.856,0,0,0-.735,4.409,13.121,13.121,0,0,0,.041,2.531.3.3,0,0,0,.122.286c.041-.041.122-.082.163-.122a21.865,21.865,0,0,0,3.348-2.817,17.329,17.329,0,0,0,2.735-3.919A17.947,17.947,0,0,0,8.431,75.2a19.077,19.077,0,0,0,.876-3.335,27.576,27.576,0,0,0,.449-4.858,2.2,2.2,0,0,1,.367-1.266c.041-.041.041-.082.082-.122s.041-.122.163-.041c0,.163,0,.286,0,.449-.041,1.061-.122,2.123-.163,3.225a66.447,66.447,0,0,0,.408,9.022,1.232,1.232,0,0,1-.082.857.15.15,0,0,0-.041.122c-.082.408-.2.816-.286,1.225a.676.676,0,0,1-.408.531,5.641,5.641,0,0,0-1.755,1.306,9.193,9.193,0,0,0-1.837,3.1,18.452,18.452,0,0,0-.939,4.2,24.22,24.22,0,0,0-.245,3.429,22.8,22.8,0,0,0,.2,4.409,10.574,10.574,0,0,0,.531,2.245,2.817,2.817,0,0,0,.163.408c.082-.082.163-.122.2-.163a18.722,18.722,0,0,0,3.021-4.327,20.365,20.365,0,0,0,1.388-3.715c.163-.531.245-1.1.367-1.633a18.051,18.051,0,0,0,.367-4.9,19.835,19.835,0,0,0-.571-3.8,1.755,1.755,0,0,1,0-.653c.041-.163.082-.286.122-.449,0-.041,0-.122.123-.122.041.082.041.163.082.245.2,1.47.49,2.939.816,4.409a61.955,61.955,0,0,0,1.8,6.532c.245.694.49,1.347.694,2.041a1.192,1.192,0,0,1,.082.367c-.041.367-.122.776-.163,1.143-.041.286-.082.572-.122.816a.564.564,0,0,0-.163.122,4.154,4.154,0,0,0-1.347,1.184A8.356,8.356,0,0,0,11.553,99.3a15.547,15.547,0,0,0-.694,4.94,15.777,15.777,0,0,0,.449,3.429,23.7,23.7,0,0,0,1.47,4.654A16.283,16.283,0,0,0,14,114.489c.041.082.122.2.245.163.082-.122.163-.286.245-.408a14.234,14.234,0,0,0,.9-2.164,25.208,25.208,0,0,0,1.184-5.8,21.118,21.118,0,0,0,.041-3.592,17.8,17.8,0,0,0-1.674-5.96A1.923,1.923,0,0,1,14.7,95.1a.15.15,0,0,1,.041-.122c0-.041,0-.122.122-.122.041.041.041.122.082.2.327.776.612,1.551.98,2.327a59.409,59.409,0,0,0,2.858,5.838l1.1,1.96a5.965,5.965,0,0,0,.9,1.347.853.853,0,0,1,.163.245.15.15,0,0,1-.041.122,5.656,5.656,0,0,0-.2,3.756,10.138,10.138,0,0,0,1.592,3.184,13.76,13.76,0,0,0,2.776,2.776c.857.653,1.715,1.225,2.572,1.837l1.347.98a.566.566,0,0,1,.286.327C29.474,119.959,29.515,120,29.555,120Z" transform="matrix(-0.978, 0.208, -0.208, -0.978, 90.356, 117.378)" fill="#ebe7e1" fill-rule="evenodd"/>
    </g>
  </g>
</svg>
