<svg xmlns="http://www.w3.org/2000/svg" width="49.5" height="49.5" viewBox="0 0 49.5 49.5"><g transform="translate(-97.25 -1552.25)"><g transform="translate(97.5 1552.199)"><g transform="translate(17.519 10.26)"><path d="M21.348,7.3l1.7,4.944H28l-4.091,2.9,1.534,4.944-4.091-3.068-4.091,3.068,1.534-4.944-4.091-2.9h5.114Z" transform="translate(-14.7 -7.3)" fill="#676866"/></g><path d="M21.961,32.7h0A12.641,12.641,0,0,1,9.2,20.288L8,2.532A1.746,1.746,0,0,1,9.861.8H34.194a1.711,1.711,0,0,1,1.729,1.732l-1.2,17.755A12.641,12.641,0,0,1,21.961,32.7Z" transform="translate(2.472)" fill="none" stroke="#f15922" stroke-linecap="round" stroke-miterlimit="10" stroke-width="1.5"/><line x1="48" transform="translate(0.5 48.8)" fill="none" stroke="#f15922" stroke-linecap="round" stroke-miterlimit="10" stroke-width="1.5"/><line y2="8.639" transform="translate(22.572 32.702)" fill="none" stroke="#f15922" stroke-linecap="round" stroke-miterlimit="10" stroke-width="1.5"/><line y2="8.639" transform="translate(26.296 32.702)" fill="none" stroke="#f15922" stroke-linecap="round" stroke-miterlimit="10" stroke-width="1.5"/><path d="M27.094,38.515H13.532A.572.572,0,0,1,13,37.983V32.532A.572.572,0,0,1,13.532,32h13.7a.572.572,0,0,1,.532.532v5.452A.883.883,0,0,1,27.094,38.515Z" transform="translate(4.12 10.285)" fill="none" stroke="#f15922" stroke-linecap="round" stroke-miterlimit="10" stroke-width="1.5"/><path d="M29.173,4.8h3.649s.487,10.183-4.622,11.726" transform="translate(9.562 1.319)" fill="none" stroke="#f15922" stroke-linecap="round" stroke-miterlimit="10" stroke-width="1.5"/><path d="M8.807,4.8H5.2S4.721,14.983,9.768,16.526" transform="translate(0.762 1.319)" fill="none" stroke="#f15922" stroke-linecap="round" stroke-miterlimit="10" stroke-width="1.5"/></g></g></svg>