<svg width="611" height="677" viewBox="0 0 611 677" fill="none" xmlns="http://www.w3.org/2000/svg">
<path d="M277.212 234.56H261.212C239.912 234.56 222.612 251.86 222.612 273.26C222.612 294.66 239.912 311.86 261.212 311.86H283.312" stroke="#000000" stroke-width="13.3333" stroke-miterlimit="23.7036" stroke-linecap="round" stroke-linejoin="round"/>
<path d="M526.132 234.56H542.132C563.432 234.56 580.832 251.86 580.832 273.26C580.832 294.66 563.432 311.86 542.132 311.86H520.032" stroke="#000000" stroke-width="13.3333" stroke-miterlimit="23.7036" stroke-linecap="round" stroke-linejoin="round"/>
<path d="M219.831 440.49C229.531 432.19 242.231 427.29 255.931 427.29H357.131" stroke="#000000" stroke-width="13.3333" stroke-miterlimit="23.7036" stroke-linecap="round" stroke-linejoin="round"/>
<path d="M199.933 596.21V663.01C199.933 666.71 202.833 669.71 206.633 669.71H596.733C600.433 669.71 603.433 666.81 603.433 663.01V483.31C603.433 452.41 578.333 427.31 547.433 427.31H446.333" stroke="#000000" stroke-width="13.3333" stroke-miterlimit="23.7036" stroke-linecap="round" stroke-linejoin="round"/>
<path d="M446.253 389.25V429.35C446.253 454.05 426.253 473.85 401.753 473.85C377.253 473.85 357.253 453.85 357.253 429.35V389.25" stroke="#000000" stroke-width="13.3333" stroke-miterlimit="23.7036" stroke-linecap="round" stroke-linejoin="round"/>
<path d="M526.135 190V273.1C526.135 341.8 470.435 397.5 401.735 397.5C333.035 397.5 277.335 341.7 277.335 273V189.9" stroke="#000000" stroke-width="13.3333" stroke-miterlimit="23.7036" stroke-linecap="round" stroke-linejoin="round"/>
<path d="M354.747 234.159V243.659" stroke="#000000" stroke-width="13.3333" stroke-miterlimit="23.7036" stroke-linecap="round" stroke-linejoin="round"/>
<path d="M448.596 234.159V243.659" stroke="#000000" stroke-width="13.3333" stroke-miterlimit="23.7036" stroke-linecap="round" stroke-linejoin="round"/>
<path d="M427.897 303.607C421.197 309.707 411.897 313.507 401.597 313.507C391.297 313.507 381.997 309.807 375.297 303.607" stroke="#000000" stroke-width="13.3333" stroke-miterlimit="23.7036" stroke-linecap="round" stroke-linejoin="round"/>
<path d="M276.537 64.5049C306.837 29.7049 350.937 7.40486 400.437 7.00486C493.137 6.30486 568.437 81.3048 568.437 173.705V182.205C568.437 186.505 564.937 189.905 560.737 189.905H500.337C461.137 189.905 424.637 171.105 401.837 139.605C379.037 171.105 342.337 189.905 303.337 189.905H242.737C238.437 189.905 235.037 186.405 235.037 182.205V175.805C233.837 148.405 251.437 93.3049 276.537 64.5049Z" stroke="#000000" stroke-width="13.3333" stroke-miterlimit="23.7036" stroke-linecap="round" stroke-linejoin="round"/>
<path d="M523.04 669.72V538.12H280.34V587.82" stroke="#000000" stroke-width="13.3333" stroke-miterlimit="23.7036" stroke-linecap="round" stroke-linejoin="round"/>
<path d="M372.805 603.879H430.405" stroke="#676866" stroke-width="13.3333" stroke-miterlimit="23.7036" stroke-linecap="round" stroke-linejoin="round"/>
<path d="M523.04 538.039V427.239" stroke="#000000" stroke-width="13.3333" stroke-miterlimit="23.7036" stroke-linecap="round" stroke-linejoin="round"/>
<path d="M280.303 538.039V427.239" stroke="#000000" stroke-width="13.3333" stroke-miterlimit="23.7036" stroke-linecap="round" stroke-linejoin="round"/>
<path d="M46.375 529.464L111.075 594.164C113.775 596.864 117.875 596.864 120.575 594.164L242.275 472.464C244.975 469.764 244.975 465.664 242.275 462.964L163.175 383.864C129.875 350.564 75.975 350.564 42.675 383.864L31.975 394.564C-1.325 427.864 -1.325 481.764 31.975 515.064L47.175 530.264" stroke="#000000" stroke-width="13.3333" stroke-miterlimit="23.7036" stroke-linecap="round" stroke-linejoin="round"/>
<path d="M203.517 511L362.217 669.701" stroke="#000000" stroke-width="13.3333" stroke-miterlimit="23.7036" stroke-linecap="round" stroke-linejoin="round"/>
<path d="M273.409 669.721L159.109 555.421" stroke="#000000" stroke-width="13.3333" stroke-miterlimit="23.7036" stroke-linecap="round" stroke-linejoin="round"/>
<path d="M159.129 555.412L117.029 513.312C104.729 501.012 104.729 481.212 117.029 468.912C129.329 456.612 149.129 456.612 161.429 468.912L203.529 511.011" stroke="#000000" stroke-width="13.3333" stroke-miterlimit="23.7036" stroke-linecap="round" stroke-linejoin="round"/>
</svg>
