<svg width="683" height="683" viewBox="0 0 683 683" fill="none" xmlns="http://www.w3.org/2000/svg">
<g clip-path="url(#clip0_1_255)">
<mask id="mask0_1_255" style="mask-type:luminance" maskUnits="userSpaceOnUse" x="-266" y="-266" width="1215" height="1215">
<path d="M948.267 948.133H-265.467V-265.6H948.267V948.133Z" fill="white"/>
</mask>
<g mask="url(#mask0_1_255)">
<path d="M198.572 669.467H443.906V650.8C443.906 631.6 428.306 616.133 409.239 616.133H233.239C214.172 616.133 198.572 631.733 198.572 650.8V669.467Z" stroke="#000000" stroke-width="17.7777" stroke-miterlimit="17.7777" stroke-linecap="round" stroke-linejoin="round"/>
<path d="M278.533 616.133H363.867V544.133H278.533V616.133Z" stroke="#000000" stroke-width="17.7777" stroke-miterlimit="17.7777" stroke-linecap="round" stroke-linejoin="round"/>
<path d="M629.022 284.133V504.133C629.022 526.267 611.155 544.133 589.022 544.133H53.4219C31.2885 544.133 13.4219 526.267 13.4219 504.133V136.133C13.4219 114 31.2885 96.1333 53.4219 96.1333H381.422" stroke="#000000" stroke-width="17.7777" stroke-miterlimit="17.7777" stroke-linecap="round" stroke-linejoin="round"/>
<path d="M522.362 460.29H13.2949" stroke="#000000" stroke-width="17.7777" stroke-miterlimit="17.7777" stroke-linecap="round" stroke-linejoin="round"/>
<path d="M20 396.133H128.4" stroke="#000000" stroke-width="17.7777" stroke-miterlimit="17.7777" stroke-linecap="round" stroke-linejoin="round"/>
<path d="M669.334 202.084V144.884H638.534C635.201 129.551 629.201 115.284 620.934 102.351L642.667 80.6172L602.134 40.0839L580.401 61.8172C567.601 53.6839 553.201 47.5506 537.867 44.2172V13.4172H480.667V44.3506C465.334 47.6839 451.067 53.8172 438.267 61.9506L416.401 40.0839L376.001 80.6172L397.867 102.484C389.734 115.284 383.734 129.551 380.401 144.884H349.334V202.084H380.401C383.734 217.284 389.734 231.684 398.001 244.351L376.001 266.351L416.534 306.884L438.534 284.884C451.334 293.017 465.601 299.017 480.801 302.484V333.551H538.001V302.484C553.334 299.151 567.601 293.151 580.401 285.017L602.267 306.884L642.667 266.351L620.801 244.484C628.934 231.684 635.067 217.417 638.401 202.084H669.334Z" stroke="#000000" stroke-width="17.7777" stroke-miterlimit="17.7777" stroke-linecap="round" stroke-linejoin="round"/>
<path d="M578.668 172.4C578.134 134.133 546.668 103.467 508.401 104C470.134 104.533 439.468 136 440.001 174.267C440.534 212.533 472.001 243.2 510.268 242.667C548.534 242.133 579.201 210.667 578.668 172.4Z" stroke="#000000" stroke-width="17.7777" stroke-miterlimit="17.7777" stroke-linecap="round" stroke-linejoin="round"/>
<path d="M290.262 263.1C290.262 258.033 289.729 253.1 288.796 248.433L309.462 236.433L286.929 197.5L266.262 209.5C258.929 202.967 250.262 197.9 240.796 194.7V170.833H195.729V194.7C186.129 197.767 177.596 202.833 170.262 209.367L149.596 197.367L127.062 236.433L147.729 248.3C146.796 253.1 146.263 258.033 146.263 262.967C146.263 267.9 146.796 272.967 147.729 277.633L127.062 289.5L149.596 328.433L170.262 316.433C177.596 322.967 186.262 328.033 195.729 331.233V355.1H240.796V331.233C250.262 328.433 258.929 323.367 266.262 316.833L286.929 328.833L309.462 289.767L288.796 277.767C289.729 273.1 290.262 268.167 290.262 263.1Z" stroke="#676866" stroke-width="17.7777" stroke-miterlimit="17.7777" stroke-linecap="round" stroke-linejoin="round"/>
</g>
<path d="M948.267 948.133H-265.467V-265.6H948.267V948.133Z" stroke="#000000" stroke-width="1.33333" stroke-miterlimit="10"/>
<path d="M796.532 -113.733H-113.734V796.533H796.532V-113.733Z" stroke="#000000" stroke-width="1.77773" stroke-miterlimit="13.3333"/>
</g>
<defs>
<clipPath id="clip0_1_255">
<rect width="682.7" height="682.7" fill="white"/>
</clipPath>
</defs>
</svg>
