<svg width="683" height="683" viewBox="0 0 683 683" fill="none" xmlns="http://www.w3.org/2000/svg">
<g clip-path="url(#clip0_1_540)">
<mask id="mask0_1_540" style="mask-type:luminance" maskUnits="userSpaceOnUse" x="0" y="0" width="683" height="683">
<path d="M682.7 0H0V682.7H682.7V0Z" fill="white"/>
</mask>
<g mask="url(#mask0_1_540)">
<path d="M555.534 622.812H644.734C658.434 622.812 669.734 634.012 669.734 647.812V666.012C669.734 669.712 666.734 672.712 663.034 672.712H400.134C396.434 672.712 393.434 669.712 393.434 666.012V647.812C393.434 634.112 404.634 622.812 418.434 622.812H507.134" stroke="#F15922" stroke-width="13" stroke-miterlimit="13.3333" stroke-linecap="round" stroke-linejoin="round"/>
<path d="M564.069 413.15V532.45H495.869V413.15" stroke="#F15922" stroke-width="13" stroke-miterlimit="13.3333" stroke-linecap="round" stroke-linejoin="round"/>
<path d="M495.902 413.15V293.85" stroke="#F15922" stroke-width="13" stroke-miterlimit="13.3333" stroke-linecap="round" stroke-linejoin="round"/>
<path d="M564.07 293.843V413.143" stroke="#F15922" stroke-width="13" stroke-miterlimit="13.3333" stroke-linecap="round" stroke-linejoin="round"/>
<path d="M495.902 293.843V174.543" stroke="#F15922" stroke-width="13" stroke-miterlimit="13.3333" stroke-linecap="round" stroke-linejoin="round"/>
<path d="M564.07 174.535V293.835" stroke="#F15922" stroke-width="13" stroke-miterlimit="13.3333" stroke-linecap="round" stroke-linejoin="round"/>
<path d="M495.902 252.763L564.102 322.663L495.902 392.563L564.102 462.463L495.902 532.463" stroke="#F15922" stroke-width="13" stroke-miterlimit="13.3333" stroke-linecap="round" stroke-linejoin="round"/>
<path d="M495.902 174.535V112.935H564.102V174.535" stroke="#F15922" stroke-width="13" stroke-miterlimit="13.3333" stroke-linecap="round" stroke-linejoin="round"/>
<path d="M495.902 112.864L564.102 182.764L495.902 252.764" stroke="#F15922" stroke-width="13" stroke-miterlimit="13.3333" stroke-linecap="round" stroke-linejoin="round"/>
<path d="M466.396 10H593.596C597.196 10 600.096 12.9 600.096 16.5V106.4C600.096 109.9 597.196 112.9 593.596 112.9H466.396C462.796 112.9 459.896 110 459.896 106.4V16.5C459.896 12.9 462.796 10 466.396 10Z" stroke="#F15922" stroke-width="13" stroke-miterlimit="13.3333" stroke-linecap="round" stroke-linejoin="round"/>
<path d="M431.053 27.359H459.953M459.953 95.459H431.053" stroke="#F15922" stroke-width="13" stroke-miterlimit="13.3333" stroke-linecap="round" stroke-linejoin="round"/>
<path d="M431.053 95.5062H311.453" stroke="#F15922" stroke-width="13" stroke-miterlimit="13.3333" stroke-linecap="round" stroke-linejoin="round"/>
<path d="M311.463 27.359H431.063" stroke="#F15922" stroke-width="13" stroke-miterlimit="13.3333" stroke-linecap="round" stroke-linejoin="round"/>
<path d="M311.463 95.5062H168.263C163.663 95.5062 159.963 92.5062 159.963 89.0062V34.0062C159.963 30.4062 163.663 27.5062 168.263 27.5062H311.463" stroke="#F15922" stroke-width="13" stroke-miterlimit="13.3333" stroke-linecap="round" stroke-linejoin="round"/>
<path d="M600.04 27.359L667.94 93.259M389.84 95.459L459.94 27.359" stroke="#F15922" stroke-width="13" stroke-miterlimit="13.3333" stroke-linecap="round" stroke-linejoin="round"/>
<path d="M179.562 27.359L249.662 95.459L319.763 27.359L389.862 95.459" stroke="#F15922" stroke-width="13" stroke-miterlimit="13.3333" stroke-linecap="round" stroke-linejoin="round"/>
<path d="M225.883 95.5062V143.906" stroke="#F15922" stroke-width="13" stroke-miterlimit="13.3333" stroke-linecap="round" stroke-linejoin="round"/>
<path d="M169.683 189.263H281.883C285.083 189.263 287.783 191.863 287.783 195.163V241.963C287.783 245.163 285.083 247.863 281.883 247.863H169.683C166.483 247.863 163.783 245.163 163.783 241.963V195.063C163.883 191.863 166.483 189.263 169.683 189.263Z" stroke="#F15922" stroke-width="13" stroke-miterlimit="13.3333" stroke-linecap="round" stroke-linejoin="round"/>
<path d="M225.882 143.878L183.182 189.278" stroke="#F15922" stroke-width="13" stroke-miterlimit="13.3333" stroke-linecap="round" stroke-linejoin="round"/>
<path d="M225.883 143.878L268.583 189.278" stroke="#F15922" stroke-width="13" stroke-miterlimit="13.3333" stroke-linecap="round" stroke-linejoin="round"/>
<path d="M600.039 27.359H661.839C666.339 27.359 670.139 30.259 670.139 33.859V88.859C670.139 92.459 666.439 95.359 661.839 95.359H600.039" stroke="#F15922" stroke-width="13" stroke-miterlimit="13.3333" stroke-linecap="round" stroke-linejoin="round"/>
<path d="M61.457 477.953H184.257C186.957 477.953 189.157 480.153 189.157 482.853V523.653C189.157 526.353 186.957 528.553 184.257 528.553H61.457C58.757 528.553 56.457 526.353 56.457 523.653V482.853C56.457 480.153 58.657 477.953 61.457 477.953Z" stroke="#676866" stroke-width="13" stroke-miterlimit="13.3333" stroke-linecap="round" stroke-linejoin="round"/>
<path d="M122.805 477.953V528.653" stroke="#676866" stroke-width="13" stroke-miterlimit="13.3333" stroke-linecap="round" stroke-linejoin="round"/>
<path d="M61.457 578.529H184.257C186.957 578.529 189.157 580.729 189.157 583.429V624.229C189.157 626.929 186.957 629.129 184.257 629.129H61.457C58.757 629.129 56.457 626.929 56.457 624.229V583.429C56.457 580.729 58.657 578.529 61.457 578.529Z" stroke="#676866" stroke-width="13" stroke-miterlimit="13.3333" stroke-linecap="round" stroke-linejoin="round"/>
<path d="M122.805 578.529V629.129" stroke="#676866" stroke-width="13" stroke-miterlimit="13.3333" stroke-linecap="round" stroke-linejoin="round"/>
<path d="M233.117 562.672V666.372C233.117 669.772 231.017 672.672 228.417 672.672H17.3172C14.7172 672.672 12.6172 669.772 12.6172 666.372V234.472C12.6172 230.972 14.7172 228.172 17.3172 228.172H119.817C121.717 228.172 122.817 229.572 122.817 231.272V427.972H229.617C230.917 427.972 233.017 429.072 233.017 431.072V516.072" stroke="#F15922" stroke-width="13" stroke-miterlimit="13.3333" stroke-linecap="round" stroke-linejoin="round"/>
<path d="M79.0703 273.367H119.37" stroke="#F15922" stroke-width="13" stroke-miterlimit="13.3333" stroke-linecap="round" stroke-linejoin="round"/>
<path d="M82.4746 329.732H122.775" stroke="#F15922" stroke-width="13" stroke-miterlimit="13.3333" stroke-linecap="round" stroke-linejoin="round"/>
<path d="M439.346 622.812V547.612C439.346 539.312 446.146 532.512 454.446 532.512H608.446C616.846 532.512 623.646 539.312 623.646 547.612V622.812" stroke="#F15922" stroke-width="13" stroke-miterlimit="13.3333" stroke-linecap="round" stroke-linejoin="round"/>
</g>
</g>
<defs>
<clipPath id="clip0_1_540">
<rect width="682.7" height="682.7" fill="white"/>
</clipPath>
</defs>
</svg>
