<svg xmlns="http://www.w3.org/2000/svg" width="193.607" height="99.914" viewBox="0 0 193.607 99.914">
  <g id="Group_8449" data-name="Group 8449" transform="translate(11441.365 9205.844)">
    <g id="Group_7432" data-name="Group 7432" transform="translate(-11438.257 -9200.125)">
      <g id="Group_7431" data-name="Group 7431" transform="translate(0 0)">
        <path id="Path_26868" data-name="Path 26868" d="M168.013,92.2a1.023,1.023,0,0,1-.113.567" transform="translate(19.377 -82.445)" fill="none" stroke="#000000" stroke-miterlimit="10" stroke-width="1"/>
        <path id="Path_26869" data-name="Path 26869" d="M167.807,94.7c-.227,1.928-.567,3.743-.907,5.558" transform="translate(19.243 -82.109)" fill="none" stroke="#000000" stroke-miterlimit="10" stroke-width="1" stroke-dasharray="0.997 1.993 0.997 1.993"/>
        <path id="Path_26870" data-name="Path 26870" d="M188.6,102.7a94,94,0,0,1-91.654,74.412h0A93.935,93.935,0,0,1,2.8,85" transform="translate(-2.8 -83.412)" fill="none" stroke="#000000" stroke-miterlimit="10" stroke-width="1" stroke-dasharray="0.997 1.993 0.997 1.993 0.997 1.993"/>
        <path id="Path_26871" data-name="Path 26871" d="M2.8,84.167V83.6h0" transform="translate(-2.8 -83.6)" fill="none" stroke="#000000" stroke-miterlimit="10" stroke-width="1"/>
      </g>
    </g>
    <circle id="Ellipse_510" data-name="Ellipse 510" cx="2.609" cy="2.609" r="2.609" transform="translate(-11253.476 -9195.476)" fill="none" stroke="#000000" stroke-miterlimit="10" stroke-width="1"/>
    <circle id="Ellipse_512" data-name="Ellipse 512" cx="2.609" cy="2.609" r="2.609" transform="translate(-11440.865 -9205.344)" fill="none" stroke="#000000" stroke-miterlimit="10" stroke-width="1"/>
  </g>
</svg>
