<svg xmlns="http://www.w3.org/2000/svg" width="32" height="43.5" viewBox="0 0 32 43.5">
  <g id="Group_8510" data-name="Group 8510" transform="translate(-667.249 -1562.249)">
    <g id="Group_7722" data-name="Group 7722" transform="translate(667.199 1562.199)">
      <g id="Group_7721" data-name="Group 7721">
        <path id="Path_30185" data-name="Path 30185" d="M8.4,29.3A14.985,14.985,0,0,1,5,26.6,15.5,15.5,0,0,1,.8,16a15.25,15.25,0,0,1,30.5,0,15.565,15.565,0,0,1-5.6,11.9,21.414,21.414,0,0,1-1.9,1.3" fill="none" stroke="#000000" stroke-linecap="round" stroke-miterlimit="10" stroke-width="1.5"/>
      </g>
      <path id="Path_30186" data-name="Path 30186" d="M8.4,29.2H23.2a.43.43,0,0,1,.4.4v2.3a.43.43,0,0,1-.4.4H8.4a.43.43,0,0,1-.4-.4V29.6A.43.43,0,0,1,8.4,29.2Z" fill="none" stroke="#000000" stroke-linecap="round" stroke-miterlimit="10" stroke-width="1.5"/>
      <path id="Path_30187" data-name="Path 30187" d="M8.4,32.3H23.2a.43.43,0,0,1,.4.4V35a.43.43,0,0,1-.4.4H8.4A.43.43,0,0,1,8,35V32.7A.366.366,0,0,1,8.4,32.3Z" fill="none" stroke="#000000" stroke-linecap="round" stroke-miterlimit="10" stroke-width="1.5"/>
      <path id="Path_30188" data-name="Path 30188" d="M23.6,33.8V39L16,42.8" fill="none" stroke="#000000" stroke-linecap="round" stroke-miterlimit="10" stroke-width="1.5"/>
      <path id="Path_30189" data-name="Path 30189" d="M8,33.8V39l7.6,3.8" fill="none" stroke="#000000" stroke-linecap="round" stroke-miterlimit="10" stroke-width="1.5"/>
      <line id="Line_7439" data-name="Line 7439" x2="9.6" transform="translate(11 40.1)" fill="none" stroke="#000000" stroke-linecap="round" stroke-miterlimit="10" stroke-width="1.5"/>
    </g>
    <path id="Path_30190" data-name="Path 30190" d="M3.408,10.052v3.882h-2c.512-3.057,1.038-6.043,2.787-8.659A2.819,2.819,0,0,0,2.129,6.981a22.056,22.056,0,0,0-.867,2.645,5.078,5.078,0,0,1,.654-7.28A12.772,12.772,0,0,1,7.389,0a17.989,17.989,0,0,1-.242,7.081C6.579,8.972,5.783,9.583,3.408,10.052Z" transform="translate(678.973 1576.018)" fill="#676866"/>
  </g>
</svg>
