<svg xmlns="http://www.w3.org/2000/svg" width="43.5" height="41.518" viewBox="0 0 43.5 41.518">
  <g id="Group_7713" data-name="Group 7713" transform="translate(-179.25 -1762.25)">
    <path id="Path_26501" data-name="Path 26501" d="M21.138,40.218a16.59,16.59,0,0,0,2.177-1.432C38.554,28.007,41.7,20.89,42.2,14.076V11.6C41.581,4.412,36.873.572,32.66.2H30.926c-4.708,0-7.062,2.106-9.664,5.2h0C18.66,2.306,16.306.2,11.6.2A9.377,9.377,0,0,0,9.74.324C5.527.7.7,4.412.2,11.6v2.354c.5,7.062,3.368,14.284,18.607,24.939Z" transform="translate(179.8 1762.8)" fill="none" stroke="#f15922" stroke-linecap="round" stroke-miterlimit="10" stroke-width="1.5"/>
    <path id="Path_26528" data-name="Path 26528" d="M.2,7.7H4.6L5.8,5.5,8,11.3l3.8-10.2,1.6,12.806,3.2-7.8,9.2.4" transform="translate(189.854 1775.317)" fill="none" stroke="#676866" stroke-linecap="round" stroke-miterlimit="10" stroke-width="1.5"/>
  </g>
</svg>
