<svg xmlns="http://www.w3.org/2000/svg" width="49.496" height="49.5" viewBox="0 0 49.496 49.5">
  <g id="Group_7640" data-name="Group 7640" transform="translate(0.372 0.25)">
    <path id="Path_30133" data-name="Path 30133" d="M5.7,13.789a13.568,13.568,0,0,1,1-4.76,12.025,12.025,0,0,1,3.79-5.157,14.172,14.172,0,0,1,4.388-2.579A17.3,17.3,0,0,1,20.461.5a21.137,21.137,0,0,1,4.787,1.19,12.821,12.821,0,0,1,5.386,4.364,21.326,21.326,0,0,1,1.995,5.355,12.041,12.041,0,0,1-.2,5.95,13.038,13.038,0,0,1-2.194,4.76c-1,1.388-2.194,2.777-3.191,4.364a43.6,43.6,0,0,1-2.793,3.57,21.218,21.218,0,0,0-2.593,4.165,18.837,18.837,0,0,0-1.8,5.355v.4c-.2.2-.4.4-.6.4s-.4-.2-.6-.6c0-.6-.2-1.19-.2-1.587a21.523,21.523,0,0,0-1.995-4.959c-.8-1.388-1.8-2.579-2.593-3.967-1-1.19-1.995-2.579-2.992-3.769A37.332,37.332,0,0,1,7.695,20.93,11.8,11.8,0,0,1,5.7,15.574Z" transform="translate(5.298 0)" fill="none" stroke="#000000" stroke-linecap="round" stroke-miterlimit="10" stroke-width="1.5"/>
    <path id="Path_30134" data-name="Path 30134" d="M38.126,16a34.51,34.51,0,0,1,4.189,1.388,18.966,18.966,0,0,1,3.391,1.983A5.515,5.515,0,0,1,48.3,23.14a4.066,4.066,0,0,1-.6,2.975,11.584,11.584,0,0,1-4.787,3.769,21.3,21.3,0,0,1-4.987,1.785c-1.4.4-2.992.6-4.388.992a46.556,46.556,0,0,1-9.175.6c-2.194,0-4.787-.2-7.181-.4A46.656,46.656,0,0,1,9.6,31.273,22.18,22.18,0,0,1,3.02,28.3,5.97,5.97,0,0,1,.426,24.529a4.408,4.408,0,0,1,.6-2.777,10.931,10.931,0,0,1,4.588-3.769A21.3,21.3,0,0,1,10.6,16.2" transform="translate(0 15.244)" fill="none" stroke="#000000" stroke-linecap="round" stroke-miterlimit="10" stroke-width="1.5"/>
    <ellipse id="Ellipse_597" data-name="Ellipse 597" cx="4.987" cy="4.959" rx="4.987" ry="4.959" transform="translate(19.575 9.227)" fill="#676866" stroke="#676866" stroke-miterlimit="10" stroke-width="1.5"/>
  </g>
</svg>
