<svg xmlns="http://www.w3.org/2000/svg" width="631.016" height="380.08" viewBox="0 0 631.016 380.08">
  <g id="Group_7924" data-name="Group 7924" transform="translate(-626.723 -1226.17)">
    <g id="Group_7921" data-name="Group 7921">
      <g id="Group_7870" data-name="Group 7870" transform="translate(19914.723 19614.25)">
        <circle id="Ellipse_398" data-name="Ellipse 398" cx="4" cy="4" r="4" transform="translate(-19280 -18016) rotate(90)" fill="#f15922" opacity="0.3"/>
        <circle id="Ellipse_399" data-name="Ellipse 399" cx="2" cy="2" r="2" transform="translate(-19282 -18014) rotate(90)" fill="#f15922"/>
      </g>
      <path id="Path_30341" data-name="Path 30341" d="M6.118-9.912,3.738-6.244l.028.028a1.312,1.312,0,0,1,.413-.126,3.189,3.189,0,0,1,.511-.042,2.838,2.838,0,0,1,1.2.252,2.947,2.947,0,0,1,.945.686,3.085,3.085,0,0,1,.616,1.008A3.415,3.415,0,0,1,7.672-3.22a3.565,3.565,0,0,1-.266,1.4A3.109,3.109,0,0,1,6.671-.749a3.233,3.233,0,0,1-1.12.679A4.067,4.067,0,0,1,4.144.168,4.2,4.2,0,0,1,2.716-.063,3.215,3.215,0,0,1,1.6-.728,2.961,2.961,0,0,1,.875-1.792,3.688,3.688,0,0,1,.616-3.206,3.741,3.741,0,0,1,.875-4.627a8.752,8.752,0,0,1,.665-1.3l2.534-3.99ZM2.38-3.234a1.787,1.787,0,0,0,.14.707,1.8,1.8,0,0,0,.385.574,1.8,1.8,0,0,0,.574.385,1.787,1.787,0,0,0,.707.14,1.787,1.787,0,0,0,.707-.14,1.8,1.8,0,0,0,.574-.385,1.8,1.8,0,0,0,.385-.574,1.787,1.787,0,0,0,.14-.707,1.787,1.787,0,0,0-.14-.707,1.8,1.8,0,0,0-.385-.574A1.8,1.8,0,0,0,4.893-4.9a1.787,1.787,0,0,0-.707-.14,1.787,1.787,0,0,0-.707.14,1.8,1.8,0,0,0-.574.385,1.8,1.8,0,0,0-.385.574A1.787,1.787,0,0,0,2.38-3.234Z" transform="translate(626.723 1593.25)" fill="#f15922"/>
    </g>
    <g id="Group_7891" data-name="Group 7891" transform="translate(0 2)">
      <path id="Path_30340" data-name="Path 30340" d="M-8.68-7.98l-1.862,1.722-.98-1.162,3-2.492H-7V0H-8.68Zm8.288,0L-2.254-6.258l-.98-1.162,3-2.492H1.288V0H-.392ZM4.732-9.912h6.734v1.54L7.5,0H5.53L9.576-8.316H4.732Z" transform="translate(674.723 1589.25)" fill="#f15922"/>
      <g id="Group_7871" data-name="Group 7871" transform="translate(19958.723 19610.25)">
        <circle id="Ellipse_398-2" data-name="Ellipse 398" cx="4" cy="4" r="4" transform="translate(-19280 -18016) rotate(90)" fill="#f15922" opacity="0.3"/>
        <circle id="Ellipse_399-2" data-name="Ellipse 399" cx="2" cy="2" r="2" transform="translate(-19282 -18014) rotate(90)" fill="#f15922"/>
      </g>
    </g>
    <g id="Group_7892" data-name="Group 7892">
      <path id="Path_30339" data-name="Path 30339" d="M-12.824-7.98l-1.862,1.722-.98-1.162,3-2.492h1.526V0h-1.68Zm5.1,3.024a9.21,9.21,0,0,1,.189-2.009,5.484,5.484,0,0,1,.5-1.4,3.335,3.335,0,0,1,.693-.91,3,3,0,0,1,.784-.518,3.059,3.059,0,0,1,.77-.231,4.43,4.43,0,0,1,.651-.056,4.43,4.43,0,0,1,.651.056,3.059,3.059,0,0,1,.77.231,3,3,0,0,1,.784.518,3.335,3.335,0,0,1,.693.91,5.484,5.484,0,0,1,.5,1.4A9.21,9.21,0,0,1-.56-4.956,9.21,9.21,0,0,1-.749-2.947a5.484,5.484,0,0,1-.5,1.4,3.335,3.335,0,0,1-.693.91,3,3,0,0,1-.784.518,3.059,3.059,0,0,1-.77.231,4.43,4.43,0,0,1-.651.056A4.43,4.43,0,0,1-4.8.112a3.059,3.059,0,0,1-.77-.231,3,3,0,0,1-.784-.518,3.335,3.335,0,0,1-.693-.91,5.484,5.484,0,0,1-.5-1.4A9.21,9.21,0,0,1-7.728-4.956Zm1.68,0a10.561,10.561,0,0,0,.063,1.071A4.9,4.9,0,0,0-5.726-2.73a2.461,2.461,0,0,0,.574.924,1.362,1.362,0,0,0,1.008.378,1.362,1.362,0,0,0,1.008-.378,2.461,2.461,0,0,0,.574-.924A4.9,4.9,0,0,0-2.3-3.885,10.561,10.561,0,0,0-2.24-4.956,10.561,10.561,0,0,0-2.3-6.027a4.9,4.9,0,0,0-.259-1.155,2.461,2.461,0,0,0-.574-.924,1.362,1.362,0,0,0-1.008-.378,1.362,1.362,0,0,0-1.008.378,2.461,2.461,0,0,0-.574.924,4.9,4.9,0,0,0-.259,1.155A10.561,10.561,0,0,0-6.048-4.956ZM4.144-10.08A3.9,3.9,0,0,1,5.327-9.9a2.972,2.972,0,0,1,.966.5,2.355,2.355,0,0,1,.651.812,2.487,2.487,0,0,1,.238,1.113,2.614,2.614,0,0,1-.371,1.4,1.9,1.9,0,0,1-1.127.826v.028a1.909,1.909,0,0,1,.679.287,2.512,2.512,0,0,1,.581.532,2.514,2.514,0,0,1,.4.721,2.53,2.53,0,0,1,.147.868,2.957,2.957,0,0,1-.266,1.3,2.774,2.774,0,0,1-.714.931,2.986,2.986,0,0,1-1.064.567,4.415,4.415,0,0,1-1.3.189A4.394,4.394,0,0,1,2.835-.021,2.993,2.993,0,0,1,1.778-.588a2.774,2.774,0,0,1-.714-.931A2.957,2.957,0,0,1,.8-2.814a2.53,2.53,0,0,1,.147-.868,2.514,2.514,0,0,1,.4-.721,2.512,2.512,0,0,1,.581-.532A1.909,1.909,0,0,1,2.6-5.222V-5.25a1.9,1.9,0,0,1-1.127-.826,2.614,2.614,0,0,1-.371-1.4,2.487,2.487,0,0,1,.238-1.113A2.355,2.355,0,0,1,2-9.4a2.972,2.972,0,0,1,.966-.5A3.9,3.9,0,0,1,4.144-10.08Zm0,1.428a1.285,1.285,0,0,0-1,.392,1.363,1.363,0,0,0-.357.952,1.41,1.41,0,0,0,.364.987,1.278,1.278,0,0,0,.994.4,1.319,1.319,0,0,0,.525-.105A1.374,1.374,0,0,0,5.1-6.321,1.353,1.353,0,0,0,5.4-6.762a1.405,1.405,0,0,0,.1-.546,1.308,1.308,0,0,0-.385-.952A1.306,1.306,0,0,0,4.144-8.652Zm0,4.074a1.87,1.87,0,0,0-.644.112,1.534,1.534,0,0,0-.532.322,1.59,1.59,0,0,0-.357.5,1.463,1.463,0,0,0-.133.623,1.512,1.512,0,0,0,.469,1.155,1.678,1.678,0,0,0,1.2.441,1.678,1.678,0,0,0,1.2-.441A1.512,1.512,0,0,0,5.81-3.024a1.463,1.463,0,0,0-.133-.623,1.59,1.59,0,0,0-.357-.5,1.534,1.534,0,0,0-.532-.322A1.87,1.87,0,0,0,4.144-4.578Zm4.97,2.8L12.964-5.5q.168-.168.35-.357a3.318,3.318,0,0,0,.329-.4,2.406,2.406,0,0,0,.245-.441,1.224,1.224,0,0,0,.1-.483,1.2,1.2,0,0,0-.119-.546,1.286,1.286,0,0,0-.315-.406,1.409,1.409,0,0,0-.455-.259,1.656,1.656,0,0,0-.553-.091,1.493,1.493,0,0,0-1.036.364,1.546,1.546,0,0,0-.49.98L9.254-7.28a3.156,3.156,0,0,1,.329-1.211,2.719,2.719,0,0,1,.707-.875A3.062,3.062,0,0,1,11.3-9.9a4.1,4.1,0,0,1,1.246-.182A4.325,4.325,0,0,1,13.8-9.9a3.025,3.025,0,0,1,1.015.518,2.411,2.411,0,0,1,.686.875,2.883,2.883,0,0,1,.252,1.246,2.975,2.975,0,0,1-.427,1.617,6.36,6.36,0,0,1-1.1,1.295L11.158-1.512H15.75V0H9.114Z" transform="translate(717.723 1567.25)" fill="#f15922"/>
      <g id="Group_7854" data-name="Group 7854" transform="translate(19893.723 19621.25)">
        <g id="Group_7872" data-name="Group 7872" transform="translate(108 -33)">
          <circle id="Ellipse_398-3" data-name="Ellipse 398" cx="4" cy="4" r="4" transform="translate(-19280 -18016) rotate(90)" fill="#f15922" opacity="0.3"/>
          <circle id="Ellipse_399-3" data-name="Ellipse 399" cx="2" cy="2" r="2" transform="translate(-19282 -18014) rotate(90)" fill="#f15922"/>
        </g>
      </g>
    </g>
    <g id="Group_7893" data-name="Group 7893">
      <path id="Path_30338" data-name="Path 30338" d="M-12.824-7.98l-1.862,1.722-.98-1.162,3-2.492h1.526V0h-1.68Zm5.362,6.2L-3.612-5.5q.168-.168.35-.357a3.318,3.318,0,0,0,.329-.4A2.406,2.406,0,0,0-2.688-6.7a1.224,1.224,0,0,0,.1-.483,1.2,1.2,0,0,0-.119-.546,1.286,1.286,0,0,0-.315-.406,1.409,1.409,0,0,0-.455-.259,1.656,1.656,0,0,0-.553-.091,1.493,1.493,0,0,0-1.036.364,1.546,1.546,0,0,0-.49.98l-1.764-.14a3.156,3.156,0,0,1,.329-1.211,2.719,2.719,0,0,1,.707-.875A3.062,3.062,0,0,1-5.278-9.9a4.1,4.1,0,0,1,1.246-.182A4.325,4.325,0,0,1-2.779-9.9a3.025,3.025,0,0,1,1.015.518,2.411,2.411,0,0,1,.686.875A2.883,2.883,0,0,1-.826-7.266a2.975,2.975,0,0,1-.427,1.617,6.36,6.36,0,0,1-1.1,1.295L-5.418-1.512H-.826V0H-7.462Zm8.288,0L4.676-5.5q.168-.168.35-.357a3.318,3.318,0,0,0,.329-.4A2.406,2.406,0,0,0,5.6-6.7a1.224,1.224,0,0,0,.1-.483,1.2,1.2,0,0,0-.119-.546,1.286,1.286,0,0,0-.315-.406,1.409,1.409,0,0,0-.455-.259,1.656,1.656,0,0,0-.553-.091A1.493,1.493,0,0,0,3.22-8.12a1.546,1.546,0,0,0-.49.98L.966-7.28A3.156,3.156,0,0,1,1.3-8.491,2.719,2.719,0,0,1,2-9.366,3.062,3.062,0,0,1,3.01-9.9a4.1,4.1,0,0,1,1.246-.182A4.325,4.325,0,0,1,5.509-9.9a3.025,3.025,0,0,1,1.015.518,2.411,2.411,0,0,1,.686.875,2.883,2.883,0,0,1,.252,1.246,2.975,2.975,0,0,1-.427,1.617,6.36,6.36,0,0,1-1.1,1.295L2.87-1.512H7.462V0H.826Zm13.58-8.134-2.38,3.668.028.028a1.312,1.312,0,0,1,.413-.126,3.189,3.189,0,0,1,.511-.042,2.838,2.838,0,0,1,1.2.252,2.947,2.947,0,0,1,.945.686,3.085,3.085,0,0,1,.616,1.008A3.415,3.415,0,0,1,15.96-3.22a3.565,3.565,0,0,1-.266,1.4,3.109,3.109,0,0,1-.735,1.071,3.233,3.233,0,0,1-1.12.679,4.067,4.067,0,0,1-1.407.238A4.2,4.2,0,0,1,11-.063,3.215,3.215,0,0,1,9.891-.728a2.961,2.961,0,0,1-.728-1.064A3.688,3.688,0,0,1,8.9-3.206a3.741,3.741,0,0,1,.259-1.421,8.752,8.752,0,0,1,.665-1.3l2.534-3.99ZM10.668-3.234a1.787,1.787,0,0,0,.14.707,1.8,1.8,0,0,0,.385.574,1.8,1.8,0,0,0,.574.385,1.787,1.787,0,0,0,.707.14,1.787,1.787,0,0,0,.707-.14,1.8,1.8,0,0,0,.574-.385,1.8,1.8,0,0,0,.385-.574,1.787,1.787,0,0,0,.14-.707,1.787,1.787,0,0,0-.14-.707,1.8,1.8,0,0,0-.385-.574,1.8,1.8,0,0,0-.574-.385,1.787,1.787,0,0,0-.707-.14,1.787,1.787,0,0,0-.707.14,1.8,1.8,0,0,0-.574.385,1.8,1.8,0,0,0-.385.574A1.787,1.787,0,0,0,10.668-3.234Z" transform="translate(761.723 1561.25)" fill="#f15922"/>
      <g id="Group_7856" data-name="Group 7856" transform="translate(19883.723 19625.25)">
        <g id="Group_7873" data-name="Group 7873" transform="translate(162 -43)">
          <circle id="Ellipse_398-4" data-name="Ellipse 398" cx="4" cy="4" r="4" transform="translate(-19280 -18016) rotate(90)" fill="#f15922" opacity="0.3"/>
          <circle id="Ellipse_399-4" data-name="Ellipse 399" cx="2" cy="2" r="2" transform="translate(-19282 -18014) rotate(90)" fill="#f15922"/>
        </g>
      </g>
    </g>
    <g id="Group_7894" data-name="Group 7894">
      <path id="Path_30337" data-name="Path 30337" d="M-15.75-1.778-11.9-5.5q.168-.168.35-.357a3.318,3.318,0,0,0,.329-.4,2.406,2.406,0,0,0,.245-.441,1.224,1.224,0,0,0,.1-.483A1.2,1.2,0,0,0-11-7.728a1.286,1.286,0,0,0-.315-.406,1.409,1.409,0,0,0-.455-.259,1.656,1.656,0,0,0-.553-.091,1.493,1.493,0,0,0-1.036.364,1.546,1.546,0,0,0-.49.98l-1.764-.14a3.156,3.156,0,0,1,.329-1.211,2.719,2.719,0,0,1,.707-.875A3.062,3.062,0,0,1-13.566-9.9a4.1,4.1,0,0,1,1.246-.182,4.325,4.325,0,0,1,1.253.175,3.025,3.025,0,0,1,1.015.518,2.411,2.411,0,0,1,.686.875,2.883,2.883,0,0,1,.252,1.246,2.975,2.975,0,0,1-.427,1.617,6.36,6.36,0,0,1-1.1,1.295l-3.066,2.842h4.592V0H-15.75Zm8.288,0L-3.612-5.5q.168-.168.35-.357a3.318,3.318,0,0,0,.329-.4A2.406,2.406,0,0,0-2.688-6.7a1.224,1.224,0,0,0,.1-.483,1.2,1.2,0,0,0-.119-.546,1.286,1.286,0,0,0-.315-.406,1.409,1.409,0,0,0-.455-.259,1.656,1.656,0,0,0-.553-.091,1.493,1.493,0,0,0-1.036.364,1.546,1.546,0,0,0-.49.98l-1.764-.14a3.156,3.156,0,0,1,.329-1.211,2.719,2.719,0,0,1,.707-.875A3.062,3.062,0,0,1-5.278-9.9a4.1,4.1,0,0,1,1.246-.182A4.325,4.325,0,0,1-2.779-9.9a3.025,3.025,0,0,1,1.015.518,2.411,2.411,0,0,1,.686.875A2.883,2.883,0,0,1-.826-7.266a2.975,2.975,0,0,1-.427,1.617,6.36,6.36,0,0,1-1.1,1.295L-5.418-1.512H-.826V0H-7.462ZM4.69-2.016H.476V-3.682l3.99-6.23h1.9v6.384H7.812v1.512H6.37V0H4.69Zm0-5.516H4.662l-2.478,4H4.69ZM15.358-8.4h-3.99l-.042,1.974a2.075,2.075,0,0,1,.5-.1q.3-.028.567-.028a3.741,3.741,0,0,1,1.337.231,2.917,2.917,0,0,1,1.043.665,3.1,3.1,0,0,1,.679,1.036,3.575,3.575,0,0,1,.245,1.358,3.609,3.609,0,0,1-.273,1.435,3.082,3.082,0,0,1-.756,1.078,3.372,3.372,0,0,1-1.141.679A4.126,4.126,0,0,1,12.11.168a3.542,3.542,0,0,1-2.023-.56A3.034,3.034,0,0,1,8.9-2.1l1.764-.476a1.642,1.642,0,0,0,.574.84,1.69,1.69,0,0,0,1.05.308,1.85,1.85,0,0,0,.693-.126,1.606,1.606,0,0,0,.546-.357,1.623,1.623,0,0,0,.357-.539,1.758,1.758,0,0,0,.126-.672A1.894,1.894,0,0,0,13.825-4a1.663,1.663,0,0,0-.511-.595,2.156,2.156,0,0,0-.742-.336,3.624,3.624,0,0,0-.882-.105,4.751,4.751,0,0,0-1.085.126,4.479,4.479,0,0,0-.987.35l.1-5.348h5.642Z" transform="translate(806.723 1532.25)" fill="#f15922"/>
      <g id="Group_7874" data-name="Group 7874" transform="translate(20090.723 19553.25)">
        <circle id="Ellipse_398-5" data-name="Ellipse 398" cx="4" cy="4" r="4" transform="translate(-19280 -18016) rotate(90)" fill="#f15922" opacity="0.3"/>
        <circle id="Ellipse_399-5" data-name="Ellipse 399" cx="2" cy="2" r="2" transform="translate(-19282 -18014) rotate(90)" fill="#f15922"/>
      </g>
    </g>
    <g id="Group_7895" data-name="Group 7895">
      <path id="Path_30336" data-name="Path 30336" d="M-15.75-1.778-11.9-5.5q.168-.168.35-.357a3.318,3.318,0,0,0,.329-.4,2.406,2.406,0,0,0,.245-.441,1.224,1.224,0,0,0,.1-.483A1.2,1.2,0,0,0-11-7.728a1.286,1.286,0,0,0-.315-.406,1.409,1.409,0,0,0-.455-.259,1.656,1.656,0,0,0-.553-.091,1.493,1.493,0,0,0-1.036.364,1.546,1.546,0,0,0-.49.98l-1.764-.14a3.156,3.156,0,0,1,.329-1.211,2.719,2.719,0,0,1,.707-.875A3.062,3.062,0,0,1-13.566-9.9a4.1,4.1,0,0,1,1.246-.182,4.325,4.325,0,0,1,1.253.175,3.025,3.025,0,0,1,1.015.518,2.411,2.411,0,0,1,.686.875,2.883,2.883,0,0,1,.252,1.246,2.975,2.975,0,0,1-.427,1.617,6.36,6.36,0,0,1-1.1,1.295l-3.066,2.842h4.592V0H-15.75Zm8.288,0L-3.612-5.5q.168-.168.35-.357a3.318,3.318,0,0,0,.329-.4A2.406,2.406,0,0,0-2.688-6.7a1.224,1.224,0,0,0,.1-.483,1.2,1.2,0,0,0-.119-.546,1.286,1.286,0,0,0-.315-.406,1.409,1.409,0,0,0-.455-.259,1.656,1.656,0,0,0-.553-.091,1.493,1.493,0,0,0-1.036.364,1.546,1.546,0,0,0-.49.98l-1.764-.14a3.156,3.156,0,0,1,.329-1.211,2.719,2.719,0,0,1,.707-.875A3.062,3.062,0,0,1-5.278-9.9a4.1,4.1,0,0,1,1.246-.182A4.325,4.325,0,0,1-2.779-9.9a3.025,3.025,0,0,1,1.015.518,2.411,2.411,0,0,1,.686.875A2.883,2.883,0,0,1-.826-7.266a2.975,2.975,0,0,1-.427,1.617,6.36,6.36,0,0,1-1.1,1.295L-5.418-1.512H-.826V0H-7.462ZM2.17,0,4.55-3.668,4.522-3.7a1.312,1.312,0,0,1-.413.126,3.189,3.189,0,0,1-.511.042,2.838,2.838,0,0,1-1.2-.252,2.947,2.947,0,0,1-.945-.686A3.085,3.085,0,0,1,.833-5.474,3.415,3.415,0,0,1,.616-6.692a3.565,3.565,0,0,1,.266-1.4,3.109,3.109,0,0,1,.735-1.071,3.233,3.233,0,0,1,1.12-.679,4.067,4.067,0,0,1,1.407-.238,4.221,4.221,0,0,1,1.421.231,3.2,3.2,0,0,1,1.12.665A2.961,2.961,0,0,1,7.413-8.12a3.688,3.688,0,0,1,.259,1.414,3.741,3.741,0,0,1-.259,1.421A8.752,8.752,0,0,1,6.748-3.99L4.214,0ZM5.908-6.678a1.787,1.787,0,0,0-.14-.707,1.8,1.8,0,0,0-.385-.574,1.8,1.8,0,0,0-.574-.385,1.787,1.787,0,0,0-.707-.14,1.787,1.787,0,0,0-.707.14,1.8,1.8,0,0,0-.574.385,1.8,1.8,0,0,0-.385.574,1.787,1.787,0,0,0-.14.707,1.787,1.787,0,0,0,.14.707,1.8,1.8,0,0,0,.385.574,1.8,1.8,0,0,0,.574.385,1.787,1.787,0,0,0,.707.14,1.787,1.787,0,0,0,.707-.14A1.8,1.8,0,0,0,5.383-5.4a1.8,1.8,0,0,0,.385-.574A1.787,1.787,0,0,0,5.908-6.678ZM8.876-9.912H15.61v1.54L11.648,0H9.674L13.72-8.316H8.876Z" transform="translate(848.723 1529.25)" fill="#f15922"/>
      <g id="Group_7875" data-name="Group 7875" transform="translate(20132.723 19550.25)">
        <circle id="Ellipse_398-6" data-name="Ellipse 398" cx="4" cy="4" r="4" transform="translate(-19280 -18016) rotate(90)" fill="#f15922" opacity="0.3"/>
        <circle id="Ellipse_399-6" data-name="Ellipse 399" cx="2" cy="2" r="2" transform="translate(-19282 -18014) rotate(90)" fill="#f15922"/>
      </g>
    </g>
    <g id="Group_7896" data-name="Group 7896">
      <path id="Path_30335" data-name="Path 30335" d="M-15.75-1.778-11.9-5.5q.168-.168.35-.357a3.318,3.318,0,0,0,.329-.4,2.406,2.406,0,0,0,.245-.441,1.224,1.224,0,0,0,.1-.483A1.2,1.2,0,0,0-11-7.728a1.286,1.286,0,0,0-.315-.406,1.409,1.409,0,0,0-.455-.259,1.656,1.656,0,0,0-.553-.091,1.493,1.493,0,0,0-1.036.364,1.546,1.546,0,0,0-.49.98l-1.764-.14a3.156,3.156,0,0,1,.329-1.211,2.719,2.719,0,0,1,.707-.875A3.062,3.062,0,0,1-13.566-9.9a4.1,4.1,0,0,1,1.246-.182,4.325,4.325,0,0,1,1.253.175,3.025,3.025,0,0,1,1.015.518,2.411,2.411,0,0,1,.686.875,2.883,2.883,0,0,1,.252,1.246,2.975,2.975,0,0,1-.427,1.617,6.36,6.36,0,0,1-1.1,1.295l-3.066,2.842h4.592V0H-15.75ZM-3.6-2.016H-7.812V-3.682l3.99-6.23h1.9v6.384H-.476v1.512H-1.918V0H-3.6Zm0-5.516h-.028l-2.478,4H-3.6ZM4.69-2.016H.476V-3.682l3.99-6.23h1.9v6.384H7.812v1.512H6.37V0H4.69Zm0-5.516H4.662l-2.478,4H4.69Zm4.186-2.38H15.61v1.54L11.648,0H9.674L13.72-8.316H8.876Z" transform="translate(892.723 1525.25)" fill="#f15922"/>
      <g id="Group_7876" data-name="Group 7876" transform="translate(20176.723 19546.25)">
        <circle id="Ellipse_398-7" data-name="Ellipse 398" cx="4" cy="4" r="4" transform="translate(-19280 -18016) rotate(90)" fill="#f15922" opacity="0.3"/>
        <circle id="Ellipse_399-7" data-name="Ellipse 399" cx="2" cy="2" r="2" transform="translate(-19282 -18014) rotate(90)" fill="#f15922"/>
      </g>
    </g>
    <g id="Group_7897" data-name="Group 7897">
      <path id="Path_30334" data-name="Path 30334" d="M-15.75-1.778-11.9-5.5q.168-.168.35-.357a3.318,3.318,0,0,0,.329-.4,2.406,2.406,0,0,0,.245-.441,1.224,1.224,0,0,0,.1-.483A1.2,1.2,0,0,0-11-7.728a1.286,1.286,0,0,0-.315-.406,1.409,1.409,0,0,0-.455-.259,1.656,1.656,0,0,0-.553-.091,1.493,1.493,0,0,0-1.036.364,1.546,1.546,0,0,0-.49.98l-1.764-.14a3.156,3.156,0,0,1,.329-1.211,2.719,2.719,0,0,1,.707-.875A3.062,3.062,0,0,1-13.566-9.9a4.1,4.1,0,0,1,1.246-.182,4.325,4.325,0,0,1,1.253.175,3.025,3.025,0,0,1,1.015.518,2.411,2.411,0,0,1,.686.875,2.883,2.883,0,0,1,.252,1.246,2.975,2.975,0,0,1-.427,1.617,6.36,6.36,0,0,1-1.1,1.295l-3.066,2.842h4.592V0H-15.75ZM-1.218-8.4h-3.99L-5.25-6.426a2.075,2.075,0,0,1,.5-.1q.3-.028.567-.028a3.741,3.741,0,0,1,1.337.231,2.917,2.917,0,0,1,1.043.665A3.1,3.1,0,0,1-1.127-4.62,3.575,3.575,0,0,1-.882-3.262a3.609,3.609,0,0,1-.273,1.435A3.082,3.082,0,0,1-1.911-.749,3.372,3.372,0,0,1-3.052-.07,4.126,4.126,0,0,1-4.466.168a3.542,3.542,0,0,1-2.023-.56A3.034,3.034,0,0,1-7.672-2.1l1.764-.476a1.642,1.642,0,0,0,.574.84,1.69,1.69,0,0,0,1.05.308,1.85,1.85,0,0,0,.693-.126,1.606,1.606,0,0,0,.546-.357,1.623,1.623,0,0,0,.357-.539,1.758,1.758,0,0,0,.126-.672A1.894,1.894,0,0,0-2.751-4,1.663,1.663,0,0,0-3.262-4.6,2.156,2.156,0,0,0-4-4.935a3.624,3.624,0,0,0-.882-.105,4.751,4.751,0,0,0-1.085.126,4.479,4.479,0,0,0-.987.35l.1-5.348h5.642ZM6.118-9.912,3.738-6.244l.028.028a1.312,1.312,0,0,1,.413-.126,3.189,3.189,0,0,1,.511-.042,2.838,2.838,0,0,1,1.2.252,2.947,2.947,0,0,1,.945.686,3.085,3.085,0,0,1,.616,1.008A3.415,3.415,0,0,1,7.672-3.22a3.565,3.565,0,0,1-.266,1.4A3.109,3.109,0,0,1,6.671-.749a3.233,3.233,0,0,1-1.12.679A4.067,4.067,0,0,1,4.144.168,4.2,4.2,0,0,1,2.716-.063,3.215,3.215,0,0,1,1.6-.728,2.961,2.961,0,0,1,.875-1.792,3.688,3.688,0,0,1,.616-3.206,3.741,3.741,0,0,1,.875-4.627a8.752,8.752,0,0,1,.665-1.3l2.534-3.99ZM2.38-3.234a1.787,1.787,0,0,0,.14.707,1.8,1.8,0,0,0,.385.574,1.8,1.8,0,0,0,.574.385,1.787,1.787,0,0,0,.707.14,1.787,1.787,0,0,0,.707-.14,1.8,1.8,0,0,0,.574-.385,1.8,1.8,0,0,0,.385-.574,1.787,1.787,0,0,0,.14-.707,1.787,1.787,0,0,0-.14-.707,1.8,1.8,0,0,0-.385-.574A1.8,1.8,0,0,0,4.893-4.9a1.787,1.787,0,0,0-.707-.14,1.787,1.787,0,0,0-.707.14,1.8,1.8,0,0,0-.574.385,1.8,1.8,0,0,0-.385.574A1.787,1.787,0,0,0,2.38-3.234Zm10.6,1.218H8.764V-3.682l3.99-6.23h1.9v6.384H16.1v1.512H14.658V0h-1.68Zm0-5.516H12.95l-2.478,4h2.506Z" transform="translate(937.723 1522.25)" fill="#f15922"/>
      <g id="Group_7877" data-name="Group 7877" transform="translate(20221.723 19543.25)">
        <circle id="Ellipse_398-8" data-name="Ellipse 398" cx="4" cy="4" r="4" transform="translate(-19280 -18016) rotate(90)" fill="#f15922" opacity="0.3"/>
        <circle id="Ellipse_399-8" data-name="Ellipse 399" cx="2" cy="2" r="2" transform="translate(-19282 -18014) rotate(90)" fill="#f15922"/>
      </g>
    </g>
    <g id="Group_7898" data-name="Group 7898">
      <path id="Path_30333" data-name="Path 30333" d="M-9.506-8.4H-13.5l-.042,1.974a2.075,2.075,0,0,1,.5-.1q.3-.028.567-.028a3.741,3.741,0,0,1,1.337.231,2.917,2.917,0,0,1,1.043.665A3.1,3.1,0,0,1-9.415-4.62,3.575,3.575,0,0,1-9.17-3.262a3.609,3.609,0,0,1-.273,1.435A3.082,3.082,0,0,1-10.2-.749,3.372,3.372,0,0,1-11.34-.07a4.126,4.126,0,0,1-1.414.238,3.542,3.542,0,0,1-2.023-.56A3.034,3.034,0,0,1-15.96-2.1l1.764-.476a1.642,1.642,0,0,0,.574.84,1.69,1.69,0,0,0,1.05.308,1.85,1.85,0,0,0,.693-.126,1.606,1.606,0,0,0,.546-.357,1.623,1.623,0,0,0,.357-.539,1.758,1.758,0,0,0,.126-.672A1.894,1.894,0,0,0-11.039-4,1.663,1.663,0,0,0-11.55-4.6a2.156,2.156,0,0,0-.742-.336,3.624,3.624,0,0,0-.882-.105,4.751,4.751,0,0,0-1.085.126,4.479,4.479,0,0,0-.987.35l.1-5.348h5.642Zm4.97.42L-6.4-6.258l-.98-1.162,3-2.492h1.526V0h-1.68ZM3.108-5.922h.434a5.814,5.814,0,0,0,.707-.042,1.825,1.825,0,0,0,.616-.182,1.117,1.117,0,0,0,.441-.406,1.325,1.325,0,0,0,.168-.714A1.222,1.222,0,0,0,5.082-8.2,1.442,1.442,0,0,0,4.06-8.568a1.508,1.508,0,0,0-.9.287,1.621,1.621,0,0,0-.581.805L.8-7.952A3.037,3.037,0,0,1,1.274-8.9,2.664,2.664,0,0,1,2-9.569a3.25,3.25,0,0,1,.924-.385,4.314,4.314,0,0,1,1.05-.126,4.315,4.315,0,0,1,1.218.168,3.085,3.085,0,0,1,1.008.5,2.432,2.432,0,0,1,.693.826,2.465,2.465,0,0,1,.259,1.155,2.373,2.373,0,0,1-.448,1.421,2.093,2.093,0,0,1-1.246.819v.028A2.067,2.067,0,0,1,6.9-4.354a2.635,2.635,0,0,1,.49,1.6A2.782,2.782,0,0,1,7.119-1.5a2.72,2.72,0,0,1-.735.917,3.211,3.211,0,0,1-1.071.56A4.25,4.25,0,0,1,4.046.168,4.9,4.9,0,0,1,2.884.035,3.27,3.27,0,0,1,1.9-.378,2.8,2.8,0,0,1,1.134-1.1a3.2,3.2,0,0,1-.49-1.057l1.792-.476a1.78,1.78,0,0,0,.546.952,1.581,1.581,0,0,0,1.064.336,1.812,1.812,0,0,0,.637-.112,1.691,1.691,0,0,0,.532-.315,1.463,1.463,0,0,0,.364-.49A1.5,1.5,0,0,0,5.712-2.9a1.363,1.363,0,0,0-.2-.777,1.368,1.368,0,0,0-.518-.462,2.237,2.237,0,0,0-.707-.217,5.441,5.441,0,0,0-.77-.056H3.108ZM12.04-7.98,10.178-6.258,9.2-7.42l3-2.492H13.72V0H12.04Z" transform="translate(979.723 1445.652)" fill="#f15922"/>
      <g id="Group_7878" data-name="Group 7878" transform="translate(20263.723 19466.652)">
        <circle id="Ellipse_398-9" data-name="Ellipse 398" cx="4" cy="4" r="4" transform="translate(-19280 -18016) rotate(90)" fill="#f15922" opacity="0.3"/>
        <circle id="Ellipse_399-9" data-name="Ellipse 399" cx="2" cy="2" r="2" transform="translate(-19282 -18014) rotate(90)" fill="#f15922"/>
      </g>
    </g>
    <g id="Group_7899" data-name="Group 7899">
      <path id="Path_30332" data-name="Path 30332" d="M-10.458-9.912l-2.38,3.668.028.028a1.312,1.312,0,0,1,.413-.126,3.189,3.189,0,0,1,.511-.042,2.838,2.838,0,0,1,1.2.252,2.947,2.947,0,0,1,.945.686,3.085,3.085,0,0,1,.616,1.008A3.415,3.415,0,0,1-8.9-3.22a3.565,3.565,0,0,1-.266,1.4A3.109,3.109,0,0,1-9.905-.749a3.233,3.233,0,0,1-1.12.679,4.067,4.067,0,0,1-1.407.238A4.2,4.2,0,0,1-13.86-.063a3.215,3.215,0,0,1-1.113-.665A2.961,2.961,0,0,1-15.7-1.792a3.688,3.688,0,0,1-.259-1.414A3.741,3.741,0,0,1-15.7-4.627a8.752,8.752,0,0,1,.665-1.3l2.534-3.99ZM-14.2-3.234a1.787,1.787,0,0,0,.14.707,1.8,1.8,0,0,0,.385.574,1.8,1.8,0,0,0,.574.385,1.787,1.787,0,0,0,.707.14,1.787,1.787,0,0,0,.707-.14,1.8,1.8,0,0,0,.574-.385,1.8,1.8,0,0,0,.385-.574,1.787,1.787,0,0,0,.14-.707,1.787,1.787,0,0,0-.14-.707,1.8,1.8,0,0,0-.385-.574,1.8,1.8,0,0,0-.574-.385,1.787,1.787,0,0,0-.707-.14,1.787,1.787,0,0,0-.707.14,1.8,1.8,0,0,0-.574.385,1.8,1.8,0,0,0-.385.574A1.787,1.787,0,0,0-14.2-3.234Zm6.734,1.456L-3.612-5.5q.168-.168.35-.357a3.318,3.318,0,0,0,.329-.4A2.406,2.406,0,0,0-2.688-6.7a1.224,1.224,0,0,0,.1-.483,1.2,1.2,0,0,0-.119-.546,1.286,1.286,0,0,0-.315-.406,1.409,1.409,0,0,0-.455-.259,1.656,1.656,0,0,0-.553-.091,1.493,1.493,0,0,0-1.036.364,1.546,1.546,0,0,0-.49.98l-1.764-.14a3.156,3.156,0,0,1,.329-1.211,2.719,2.719,0,0,1,.707-.875A3.062,3.062,0,0,1-5.278-9.9a4.1,4.1,0,0,1,1.246-.182A4.325,4.325,0,0,1-2.779-9.9a3.025,3.025,0,0,1,1.015.518,2.411,2.411,0,0,1,.686.875A2.883,2.883,0,0,1-.826-7.266a2.975,2.975,0,0,1-.427,1.617,6.36,6.36,0,0,1-1.1,1.295L-5.418-1.512H-.826V0H-7.462ZM4.69-2.016H.476V-3.682l3.99-6.23h1.9v6.384H7.812v1.512H6.37V0H4.69Zm0-5.516H4.662l-2.478,4H4.69Zm9.716-2.38-2.38,3.668.028.028a1.312,1.312,0,0,1,.413-.126,3.189,3.189,0,0,1,.511-.042,2.838,2.838,0,0,1,1.2.252,2.947,2.947,0,0,1,.945.686,3.085,3.085,0,0,1,.616,1.008A3.415,3.415,0,0,1,15.96-3.22a3.565,3.565,0,0,1-.266,1.4,3.109,3.109,0,0,1-.735,1.071,3.233,3.233,0,0,1-1.12.679,4.067,4.067,0,0,1-1.407.238A4.2,4.2,0,0,1,11-.063,3.215,3.215,0,0,1,9.891-.728a2.961,2.961,0,0,1-.728-1.064A3.688,3.688,0,0,1,8.9-3.206a3.741,3.741,0,0,1,.259-1.421,8.752,8.752,0,0,1,.665-1.3l2.534-3.99ZM10.668-3.234a1.787,1.787,0,0,0,.14.707,1.8,1.8,0,0,0,.385.574,1.8,1.8,0,0,0,.574.385,1.787,1.787,0,0,0,.707.14,1.787,1.787,0,0,0,.707-.14,1.8,1.8,0,0,0,.574-.385,1.8,1.8,0,0,0,.385-.574,1.787,1.787,0,0,0,.14-.707,1.787,1.787,0,0,0-.14-.707,1.8,1.8,0,0,0-.385-.574,1.8,1.8,0,0,0-.574-.385,1.787,1.787,0,0,0-.707-.14,1.787,1.787,0,0,0-.707.14,1.8,1.8,0,0,0-.574.385,1.8,1.8,0,0,0-.385.574A1.787,1.787,0,0,0,10.668-3.234Z" transform="translate(1023.723 1415.25)" fill="#f15922"/>
      <g id="Group_7879" data-name="Group 7879" transform="translate(20307.723 19436.25)">
        <circle id="Ellipse_398-10" data-name="Ellipse 398" cx="4" cy="4" r="4" transform="translate(-19280 -18016) rotate(90)" fill="#f15922" opacity="0.3"/>
        <circle id="Ellipse_399-10" data-name="Ellipse 399" cx="2" cy="2" r="2" transform="translate(-19282 -18014) rotate(90)" fill="#f15922"/>
      </g>
    </g>
    <g id="Group_7900" data-name="Group 7900">
      <path id="Path_30331" data-name="Path 30331" d="M-16.968-7.98-18.83-6.258l-.98-1.162,3-2.492h1.526V0h-1.68Zm8.288,0-1.862,1.722-.98-1.162,3-2.492H-7V0H-8.68Zm5.1,3.024a9.21,9.21,0,0,1,.189-2.009,5.484,5.484,0,0,1,.5-1.4,3.335,3.335,0,0,1,.693-.91,3,3,0,0,1,.784-.518,3.059,3.059,0,0,1,.77-.231A4.43,4.43,0,0,1,0-10.08a4.43,4.43,0,0,1,.651.056,3.059,3.059,0,0,1,.77.231,3,3,0,0,1,.784.518,3.335,3.335,0,0,1,.693.91,5.484,5.484,0,0,1,.5,1.4,9.21,9.21,0,0,1,.189,2.009A9.21,9.21,0,0,1,3.4-2.947a5.484,5.484,0,0,1-.5,1.4,3.335,3.335,0,0,1-.693.91,3,3,0,0,1-.784.518,3.059,3.059,0,0,1-.77.231A4.43,4.43,0,0,1,0,.168,4.43,4.43,0,0,1-.651.112a3.059,3.059,0,0,1-.77-.231A3,3,0,0,1-2.2-.637a3.335,3.335,0,0,1-.693-.91,5.484,5.484,0,0,1-.5-1.4A9.21,9.21,0,0,1-3.584-4.956Zm1.68,0a10.561,10.561,0,0,0,.063,1.071A4.9,4.9,0,0,0-1.582-2.73a2.461,2.461,0,0,0,.574.924A1.362,1.362,0,0,0,0-1.428a1.362,1.362,0,0,0,1.008-.378,2.461,2.461,0,0,0,.574-.924,4.9,4.9,0,0,0,.259-1.155A10.561,10.561,0,0,0,1.9-4.956a10.561,10.561,0,0,0-.063-1.071,4.9,4.9,0,0,0-.259-1.155,2.461,2.461,0,0,0-.574-.924A1.362,1.362,0,0,0,0-8.484a1.362,1.362,0,0,0-1.008.378,2.461,2.461,0,0,0-.574.924,4.9,4.9,0,0,0-.259,1.155A10.561,10.561,0,0,0-1.9-4.956ZM10.262-9.912,7.882-6.244l.028.028a1.312,1.312,0,0,1,.413-.126,3.189,3.189,0,0,1,.511-.042,2.838,2.838,0,0,1,1.2.252,2.947,2.947,0,0,1,.945.686A3.085,3.085,0,0,1,11.6-4.438a3.415,3.415,0,0,1,.217,1.218,3.565,3.565,0,0,1-.266,1.4,3.109,3.109,0,0,1-.735,1.071A3.233,3.233,0,0,1,9.7-.07,4.067,4.067,0,0,1,8.288.168,4.2,4.2,0,0,1,6.86-.063,3.215,3.215,0,0,1,5.747-.728a2.961,2.961,0,0,1-.728-1.064A3.688,3.688,0,0,1,4.76-3.206a3.741,3.741,0,0,1,.259-1.421,8.752,8.752,0,0,1,.665-1.3l2.534-3.99ZM6.524-3.234a1.787,1.787,0,0,0,.14.707,1.8,1.8,0,0,0,.385.574,1.8,1.8,0,0,0,.574.385,1.787,1.787,0,0,0,.707.14,1.787,1.787,0,0,0,.707-.14,1.8,1.8,0,0,0,.574-.385A1.8,1.8,0,0,0,10-2.527a1.787,1.787,0,0,0,.14-.707A1.787,1.787,0,0,0,10-3.941a1.8,1.8,0,0,0-.385-.574A1.8,1.8,0,0,0,9.037-4.9a1.787,1.787,0,0,0-.707-.14,1.787,1.787,0,0,0-.707.14,1.8,1.8,0,0,0-.574.385,1.8,1.8,0,0,0-.385.574A1.787,1.787,0,0,0,6.524-3.234Zm9.66-4.746L14.322-6.258l-.98-1.162,3-2.492h1.526V0h-1.68Z" transform="translate(1067.723 1268.25)" fill="#f15922"/>
      <g id="Group_7880" data-name="Group 7880" transform="translate(20351.723 19289.25)">
        <circle id="Ellipse_398-11" data-name="Ellipse 398" cx="4" cy="4" r="4" transform="translate(-19280 -18016) rotate(90)" fill="#f15922" opacity="0.3"/>
        <circle id="Ellipse_399-11" data-name="Ellipse 399" cx="2" cy="2" r="2" transform="translate(-19282 -18014) rotate(90)" fill="#f15922"/>
      </g>
    </g>
    <g id="Group_7901" data-name="Group 7901">
      <path id="Path_30330" data-name="Path 30330" d="M-16.968-7.98-18.83-6.258l-.98-1.162,3-2.492h1.526V0h-1.68Zm5.362,6.2L-7.756-5.5q.168-.168.35-.357a3.318,3.318,0,0,0,.329-.4A2.406,2.406,0,0,0-6.832-6.7a1.224,1.224,0,0,0,.1-.483,1.2,1.2,0,0,0-.119-.546,1.286,1.286,0,0,0-.315-.406,1.409,1.409,0,0,0-.455-.259,1.656,1.656,0,0,0-.553-.091,1.493,1.493,0,0,0-1.036.364,1.546,1.546,0,0,0-.49.98l-1.764-.14a3.156,3.156,0,0,1,.329-1.211,2.719,2.719,0,0,1,.707-.875A3.062,3.062,0,0,1-9.422-9.9a4.1,4.1,0,0,1,1.246-.182A4.325,4.325,0,0,1-6.923-9.9a3.025,3.025,0,0,1,1.015.518,2.411,2.411,0,0,1,.686.875A2.883,2.883,0,0,1-4.97-7.266,2.975,2.975,0,0,1-5.4-5.649,6.36,6.36,0,0,1-6.5-4.354L-9.562-1.512H-4.97V0h-6.636Zm8.288,0L.532-5.5Q.7-5.67.882-5.859a3.318,3.318,0,0,0,.329-.4A2.406,2.406,0,0,0,1.456-6.7a1.224,1.224,0,0,0,.1-.483,1.2,1.2,0,0,0-.119-.546,1.286,1.286,0,0,0-.315-.406,1.409,1.409,0,0,0-.455-.259,1.656,1.656,0,0,0-.553-.091A1.493,1.493,0,0,0-.924-8.12a1.546,1.546,0,0,0-.49.98l-1.764-.14a3.156,3.156,0,0,1,.329-1.211,2.719,2.719,0,0,1,.707-.875A3.062,3.062,0,0,1-1.134-9.9,4.1,4.1,0,0,1,.112-10.08,4.325,4.325,0,0,1,1.365-9.9a3.025,3.025,0,0,1,1.015.518,2.411,2.411,0,0,1,.686.875,2.883,2.883,0,0,1,.252,1.246,2.975,2.975,0,0,1-.427,1.617,6.36,6.36,0,0,1-1.1,1.295L-1.274-1.512H3.318V0H-3.318ZM4.7-4.956a9.21,9.21,0,0,1,.189-2.009,5.484,5.484,0,0,1,.5-1.4,3.335,3.335,0,0,1,.693-.91,3,3,0,0,1,.784-.518,3.059,3.059,0,0,1,.77-.231,4.43,4.43,0,0,1,.651-.056,4.43,4.43,0,0,1,.651.056,3.059,3.059,0,0,1,.77.231,3,3,0,0,1,.784.518,3.335,3.335,0,0,1,.693.91,5.484,5.484,0,0,1,.5,1.4,9.21,9.21,0,0,1,.189,2.009,9.21,9.21,0,0,1-.189,2.009,5.484,5.484,0,0,1-.5,1.4,3.335,3.335,0,0,1-.693.91,3,3,0,0,1-.784.518,3.059,3.059,0,0,1-.77.231,4.43,4.43,0,0,1-.651.056A4.43,4.43,0,0,1,7.637.112a3.059,3.059,0,0,1-.77-.231,3,3,0,0,1-.784-.518,3.335,3.335,0,0,1-.693-.91,5.484,5.484,0,0,1-.5-1.4A9.21,9.21,0,0,1,4.7-4.956Zm1.68,0a10.561,10.561,0,0,0,.063,1.071A4.9,4.9,0,0,0,6.706-2.73a2.461,2.461,0,0,0,.574.924,1.362,1.362,0,0,0,1.008.378A1.362,1.362,0,0,0,9.3-1.806,2.461,2.461,0,0,0,9.87-2.73a4.9,4.9,0,0,0,.259-1.155,10.561,10.561,0,0,0,.063-1.071,10.561,10.561,0,0,0-.063-1.071A4.9,4.9,0,0,0,9.87-7.182,2.461,2.461,0,0,0,9.3-8.106a1.362,1.362,0,0,0-1.008-.378,1.362,1.362,0,0,0-1.008.378,2.461,2.461,0,0,0-.574.924,4.9,4.9,0,0,0-.259,1.155A10.561,10.561,0,0,0,6.384-4.956ZM13.02-9.912h6.734v1.54L15.792,0H13.818l4.046-8.316H13.02Z" transform="translate(1111.723 1236.25)" fill="#f15922"/>
      <g id="Group_7881" data-name="Group 7881" transform="translate(20395.723 19257.25)">
        <circle id="Ellipse_398-12" data-name="Ellipse 398" cx="4" cy="4" r="4" transform="translate(-19280 -18016) rotate(90)" fill="#f15922" opacity="0.3"/>
        <circle id="Ellipse_399-12" data-name="Ellipse 399" cx="2" cy="2" r="2" transform="translate(-19282 -18014) rotate(90)" fill="#f15922"/>
      </g>
    </g>
    <g id="Group_7902" data-name="Group 7902">
      <path id="Path_30329" data-name="Path 30329" d="M-16.968-7.98-18.83-6.258l-.98-1.162,3-2.492h1.526V0h-1.68Zm5.1,3.024a9.21,9.21,0,0,1,.189-2.009,5.484,5.484,0,0,1,.5-1.4,3.335,3.335,0,0,1,.693-.91,3,3,0,0,1,.784-.518,3.059,3.059,0,0,1,.77-.231,4.43,4.43,0,0,1,.651-.056,4.43,4.43,0,0,1,.651.056,3.059,3.059,0,0,1,.77.231,3,3,0,0,1,.784.518,3.335,3.335,0,0,1,.693.91,5.484,5.484,0,0,1,.5,1.4A9.21,9.21,0,0,1-4.7-4.956a9.21,9.21,0,0,1-.189,2.009,5.484,5.484,0,0,1-.5,1.4,3.335,3.335,0,0,1-.693.91,3,3,0,0,1-.784.518,3.059,3.059,0,0,1-.77.231,4.43,4.43,0,0,1-.651.056A4.43,4.43,0,0,1-8.939.112a3.059,3.059,0,0,1-.77-.231,3,3,0,0,1-.784-.518,3.335,3.335,0,0,1-.693-.91,5.484,5.484,0,0,1-.5-1.4A9.21,9.21,0,0,1-11.872-4.956Zm1.68,0a10.561,10.561,0,0,0,.063,1.071A4.9,4.9,0,0,0-9.87-2.73a2.461,2.461,0,0,0,.574.924,1.362,1.362,0,0,0,1.008.378A1.362,1.362,0,0,0-7.28-1.806a2.461,2.461,0,0,0,.574-.924,4.9,4.9,0,0,0,.259-1.155,10.561,10.561,0,0,0,.063-1.071,10.561,10.561,0,0,0-.063-1.071,4.9,4.9,0,0,0-.259-1.155,2.461,2.461,0,0,0-.574-.924,1.362,1.362,0,0,0-1.008-.378A1.362,1.362,0,0,0-9.3-8.106a2.461,2.461,0,0,0-.574.924,4.9,4.9,0,0,0-.259,1.155A10.561,10.561,0,0,0-10.192-4.956Zm6.608,0a9.21,9.21,0,0,1,.189-2.009,5.484,5.484,0,0,1,.5-1.4,3.335,3.335,0,0,1,.693-.91,3,3,0,0,1,.784-.518,3.059,3.059,0,0,1,.77-.231A4.43,4.43,0,0,1,0-10.08a4.43,4.43,0,0,1,.651.056,3.059,3.059,0,0,1,.77.231,3,3,0,0,1,.784.518,3.335,3.335,0,0,1,.693.91,5.484,5.484,0,0,1,.5,1.4,9.21,9.21,0,0,1,.189,2.009A9.21,9.21,0,0,1,3.4-2.947a5.484,5.484,0,0,1-.5,1.4,3.335,3.335,0,0,1-.693.91,3,3,0,0,1-.784.518,3.059,3.059,0,0,1-.77.231A4.43,4.43,0,0,1,0,.168,4.43,4.43,0,0,1-.651.112a3.059,3.059,0,0,1-.77-.231A3,3,0,0,1-2.2-.637a3.335,3.335,0,0,1-.693-.91,5.484,5.484,0,0,1-.5-1.4A9.21,9.21,0,0,1-3.584-4.956Zm1.68,0a10.561,10.561,0,0,0,.063,1.071A4.9,4.9,0,0,0-1.582-2.73a2.461,2.461,0,0,0,.574.924A1.362,1.362,0,0,0,0-1.428a1.362,1.362,0,0,0,1.008-.378,2.461,2.461,0,0,0,.574-.924,4.9,4.9,0,0,0,.259-1.155A10.561,10.561,0,0,0,1.9-4.956a10.561,10.561,0,0,0-.063-1.071,4.9,4.9,0,0,0-.259-1.155,2.461,2.461,0,0,0-.574-.924A1.362,1.362,0,0,0,0-8.484a1.362,1.362,0,0,0-1.008.378,2.461,2.461,0,0,0-.574.924,4.9,4.9,0,0,0-.259,1.155A10.561,10.561,0,0,0-1.9-4.956ZM8.288-10.08A3.9,3.9,0,0,1,9.471-9.9a2.972,2.972,0,0,1,.966.5,2.355,2.355,0,0,1,.651.812,2.487,2.487,0,0,1,.238,1.113,2.614,2.614,0,0,1-.371,1.4,1.9,1.9,0,0,1-1.127.826v.028a1.909,1.909,0,0,1,.679.287,2.512,2.512,0,0,1,.581.532,2.514,2.514,0,0,1,.4.721,2.53,2.53,0,0,1,.147.868,2.957,2.957,0,0,1-.266,1.3,2.774,2.774,0,0,1-.714.931A2.986,2.986,0,0,1,9.59-.021a4.415,4.415,0,0,1-1.3.189A4.394,4.394,0,0,1,6.979-.021,2.993,2.993,0,0,1,5.922-.588a2.774,2.774,0,0,1-.714-.931,2.957,2.957,0,0,1-.266-1.3,2.53,2.53,0,0,1,.147-.868,2.514,2.514,0,0,1,.4-.721,2.512,2.512,0,0,1,.581-.532,1.909,1.909,0,0,1,.679-.287V-5.25a1.9,1.9,0,0,1-1.127-.826,2.614,2.614,0,0,1-.371-1.4,2.487,2.487,0,0,1,.238-1.113A2.355,2.355,0,0,1,6.139-9.4a2.972,2.972,0,0,1,.966-.5A3.9,3.9,0,0,1,8.288-10.08Zm0,1.428a1.285,1.285,0,0,0-1,.392,1.363,1.363,0,0,0-.357.952,1.41,1.41,0,0,0,.364.987,1.278,1.278,0,0,0,.994.4,1.319,1.319,0,0,0,.525-.105,1.374,1.374,0,0,0,.434-.294,1.353,1.353,0,0,0,.294-.441,1.405,1.405,0,0,0,.1-.546,1.308,1.308,0,0,0-.385-.952A1.306,1.306,0,0,0,8.288-8.652Zm0,4.074a1.87,1.87,0,0,0-.644.112,1.534,1.534,0,0,0-.532.322,1.59,1.59,0,0,0-.357.5,1.463,1.463,0,0,0-.133.623,1.512,1.512,0,0,0,.469,1.155,1.678,1.678,0,0,0,1.2.441,1.678,1.678,0,0,0,1.2-.441,1.512,1.512,0,0,0,.469-1.155,1.463,1.463,0,0,0-.133-.623,1.59,1.59,0,0,0-.357-.5,1.534,1.534,0,0,0-.532-.322A1.87,1.87,0,0,0,8.288-4.578Zm4.7-.378a9.21,9.21,0,0,1,.189-2.009,5.484,5.484,0,0,1,.5-1.4,3.335,3.335,0,0,1,.693-.91,3,3,0,0,1,.784-.518,3.059,3.059,0,0,1,.77-.231,4.43,4.43,0,0,1,.651-.056,4.43,4.43,0,0,1,.651.056,3.059,3.059,0,0,1,.77.231,3,3,0,0,1,.784.518,3.335,3.335,0,0,1,.693.91,5.484,5.484,0,0,1,.5,1.4,9.21,9.21,0,0,1,.189,2.009,9.21,9.21,0,0,1-.189,2.009,5.484,5.484,0,0,1-.5,1.4,3.335,3.335,0,0,1-.693.91A3,3,0,0,1,18-.119a3.059,3.059,0,0,1-.77.231,4.43,4.43,0,0,1-.651.056,4.43,4.43,0,0,1-.651-.056,3.059,3.059,0,0,1-.77-.231,3,3,0,0,1-.784-.518,3.335,3.335,0,0,1-.693-.91,5.484,5.484,0,0,1-.5-1.4A9.21,9.21,0,0,1,12.992-4.956Zm1.68,0a10.561,10.561,0,0,0,.063,1.071,4.9,4.9,0,0,0,.259,1.155,2.461,2.461,0,0,0,.574.924,1.362,1.362,0,0,0,1.008.378,1.362,1.362,0,0,0,1.008-.378,2.461,2.461,0,0,0,.574-.924,4.9,4.9,0,0,0,.259-1.155,10.561,10.561,0,0,0,.063-1.071,10.561,10.561,0,0,0-.063-1.071,4.9,4.9,0,0,0-.259-1.155,2.461,2.461,0,0,0-.574-.924,1.362,1.362,0,0,0-1.008-.378,1.362,1.362,0,0,0-1.008.378,2.461,2.461,0,0,0-.574.924,4.9,4.9,0,0,0-.259,1.155A10.561,10.561,0,0,0,14.672-4.956Z" transform="translate(1154.723 1298.25)" fill="#f15922"/>
      <g id="Group_7882" data-name="Group 7882" transform="translate(20438.723 19327.25)">
        <circle id="Ellipse_398-13" data-name="Ellipse 398" cx="4" cy="4" r="4" transform="translate(-19280 -18024) rotate(90)" fill="#f15922" opacity="0.3"/>
        <circle id="Ellipse_399-13" data-name="Ellipse 399" cx="2" cy="2" r="2" transform="translate(-19282 -18022) rotate(90)" fill="#f15922"/>
      </g>
    </g>
    <g id="Group_7922" data-name="Group 7922">
      <path id="Path_30328" data-name="Path 30328" d="M-12.432-10.08a3.9,3.9,0,0,1,1.183.175,2.972,2.972,0,0,1,.966.5,2.355,2.355,0,0,1,.651.812,2.487,2.487,0,0,1,.238,1.113,2.614,2.614,0,0,1-.371,1.4,1.9,1.9,0,0,1-1.127.826v.028a1.909,1.909,0,0,1,.679.287,2.512,2.512,0,0,1,.581.532,2.514,2.514,0,0,1,.4.721,2.53,2.53,0,0,1,.147.868,2.957,2.957,0,0,1-.266,1.3,2.774,2.774,0,0,1-.714.931,2.986,2.986,0,0,1-1.064.567,4.415,4.415,0,0,1-1.3.189,4.394,4.394,0,0,1-1.309-.189A2.993,2.993,0,0,1-14.8-.588a2.774,2.774,0,0,1-.714-.931,2.957,2.957,0,0,1-.266-1.3,2.53,2.53,0,0,1,.147-.868,2.514,2.514,0,0,1,.4-.721,2.512,2.512,0,0,1,.581-.532,1.909,1.909,0,0,1,.679-.287V-5.25A1.9,1.9,0,0,1-15.1-6.076a2.614,2.614,0,0,1-.371-1.4,2.487,2.487,0,0,1,.238-1.113,2.355,2.355,0,0,1,.651-.812,2.972,2.972,0,0,1,.966-.5A3.9,3.9,0,0,1-12.432-10.08Zm0,1.428a1.285,1.285,0,0,0-1,.392,1.363,1.363,0,0,0-.357.952,1.41,1.41,0,0,0,.364.987,1.278,1.278,0,0,0,.994.4,1.319,1.319,0,0,0,.525-.105,1.374,1.374,0,0,0,.434-.294,1.353,1.353,0,0,0,.294-.441,1.405,1.405,0,0,0,.1-.546,1.308,1.308,0,0,0-.385-.952A1.306,1.306,0,0,0-12.432-8.652Zm0,4.074a1.87,1.87,0,0,0-.644.112,1.534,1.534,0,0,0-.532.322,1.59,1.59,0,0,0-.357.5,1.463,1.463,0,0,0-.133.623,1.512,1.512,0,0,0,.469,1.155,1.678,1.678,0,0,0,1.2.441,1.678,1.678,0,0,0,1.2-.441,1.512,1.512,0,0,0,.469-1.155,1.463,1.463,0,0,0-.133-.623,1.59,1.59,0,0,0-.357-.5,1.534,1.534,0,0,0-.532-.322A1.87,1.87,0,0,0-12.432-4.578Zm7.9-3.4L-6.4-6.258l-.98-1.162,3-2.492h1.526V0h-1.68ZM7.07-8.4H3.08L3.038-6.426a2.075,2.075,0,0,1,.5-.1q.3-.028.567-.028a3.741,3.741,0,0,1,1.337.231,2.917,2.917,0,0,1,1.043.665A3.1,3.1,0,0,1,7.161-4.62a3.575,3.575,0,0,1,.245,1.358,3.609,3.609,0,0,1-.273,1.435A3.082,3.082,0,0,1,6.377-.749,3.372,3.372,0,0,1,5.236-.07,4.126,4.126,0,0,1,3.822.168,3.542,3.542,0,0,1,1.8-.392,3.034,3.034,0,0,1,.616-2.1L2.38-2.576a1.642,1.642,0,0,0,.574.84A1.69,1.69,0,0,0,4-1.428,1.85,1.85,0,0,0,4.7-1.554a1.606,1.606,0,0,0,.546-.357A1.623,1.623,0,0,0,5.6-2.45a1.758,1.758,0,0,0,.126-.672A1.894,1.894,0,0,0,5.537-4,1.663,1.663,0,0,0,5.026-4.6a2.156,2.156,0,0,0-.742-.336A3.624,3.624,0,0,0,3.4-5.04a4.751,4.751,0,0,0-1.085.126,4.479,4.479,0,0,0-.987.35l.1-5.348H7.07ZM11.4-5.922h.434a5.814,5.814,0,0,0,.707-.042,1.825,1.825,0,0,0,.616-.182,1.117,1.117,0,0,0,.441-.406,1.325,1.325,0,0,0,.168-.714A1.222,1.222,0,0,0,13.37-8.2a1.442,1.442,0,0,0-1.022-.364,1.508,1.508,0,0,0-.9.287,1.621,1.621,0,0,0-.581.805L9.086-7.952A3.037,3.037,0,0,1,9.562-8.9a2.664,2.664,0,0,1,.728-.665,3.25,3.25,0,0,1,.924-.385,4.314,4.314,0,0,1,1.05-.126,4.315,4.315,0,0,1,1.218.168,3.085,3.085,0,0,1,1.008.5,2.432,2.432,0,0,1,.693.826,2.465,2.465,0,0,1,.259,1.155,2.373,2.373,0,0,1-.448,1.421,2.093,2.093,0,0,1-1.246.819v.028a2.067,2.067,0,0,1,1.442.812,2.635,2.635,0,0,1,.49,1.6,2.782,2.782,0,0,1-.273,1.26,2.72,2.72,0,0,1-.735.917,3.211,3.211,0,0,1-1.071.56,4.25,4.25,0,0,1-1.267.189A4.9,4.9,0,0,1,11.172.035a3.27,3.27,0,0,1-.987-.413A2.8,2.8,0,0,1,9.422-1.1a3.2,3.2,0,0,1-.49-1.057l1.792-.476a1.78,1.78,0,0,0,.546.952,1.581,1.581,0,0,0,1.064.336,1.812,1.812,0,0,0,.637-.112,1.691,1.691,0,0,0,.532-.315,1.463,1.463,0,0,0,.364-.49A1.5,1.5,0,0,0,14-2.9a1.363,1.363,0,0,0-.2-.777,1.368,1.368,0,0,0-.518-.462,2.237,2.237,0,0,0-.707-.217,5.441,5.441,0,0,0-.77-.056H11.4Z" transform="translate(1197.723 1359.25)" fill="#f15922"/>
      <g id="Group_7883" data-name="Group 7883" transform="translate(20481.723 19380.25)">
        <circle id="Ellipse_398-14" data-name="Ellipse 398" cx="4" cy="4" r="4" transform="translate(-19280 -18016) rotate(90)" fill="#f15922" opacity="0.3"/>
        <circle id="Ellipse_399-14" data-name="Ellipse 399" cx="2" cy="2" r="2" transform="translate(-19282 -18014) rotate(90)" fill="#f15922"/>
      </g>
    </g>
    <g id="Group_7923" data-name="Group 7923">
      <path id="Path_30327" data-name="Path 30327" d="M-15.988-9.912h6.734v1.54L-13.216,0H-15.19l4.046-8.316h-4.844ZM-6.118,0l2.38-3.668L-3.766-3.7a1.312,1.312,0,0,1-.413.126,3.189,3.189,0,0,1-.511.042,2.838,2.838,0,0,1-1.2-.252,2.947,2.947,0,0,1-.945-.686,3.085,3.085,0,0,1-.616-1.008,3.415,3.415,0,0,1-.217-1.218,3.565,3.565,0,0,1,.266-1.4,3.109,3.109,0,0,1,.735-1.071,3.233,3.233,0,0,1,1.12-.679,4.067,4.067,0,0,1,1.407-.238,4.221,4.221,0,0,1,1.421.231,3.2,3.2,0,0,1,1.12.665A2.961,2.961,0,0,1-.875-8.12,3.688,3.688,0,0,1-.616-6.706,3.741,3.741,0,0,1-.875-5.285,8.752,8.752,0,0,1-1.54-3.99L-4.074,0ZM-2.38-6.678a1.787,1.787,0,0,0-.14-.707,1.8,1.8,0,0,0-.385-.574,1.8,1.8,0,0,0-.574-.385,1.787,1.787,0,0,0-.707-.14,1.787,1.787,0,0,0-.707.14,1.8,1.8,0,0,0-.574.385,1.8,1.8,0,0,0-.385.574,1.787,1.787,0,0,0-.14.707,1.787,1.787,0,0,0,.14.707,1.8,1.8,0,0,0,.385.574,1.8,1.8,0,0,0,.574.385,1.787,1.787,0,0,0,.707.14,1.787,1.787,0,0,0,.707-.14A1.8,1.8,0,0,0-2.905-5.4a1.8,1.8,0,0,0,.385-.574A1.787,1.787,0,0,0-2.38-6.678Zm6.132-1.3L1.89-6.258.91-7.42l3-2.492H5.432V0H3.752Zm5.1,3.024a9.21,9.21,0,0,1,.189-2.009,5.484,5.484,0,0,1,.5-1.4,3.335,3.335,0,0,1,.693-.91,3,3,0,0,1,.784-.518,3.059,3.059,0,0,1,.77-.231,4.43,4.43,0,0,1,.651-.056,4.43,4.43,0,0,1,.651.056,3.059,3.059,0,0,1,.77.231,3,3,0,0,1,.784.518,3.335,3.335,0,0,1,.693.91,5.484,5.484,0,0,1,.5,1.4,9.21,9.21,0,0,1,.189,2.009,9.21,9.21,0,0,1-.189,2.009,5.484,5.484,0,0,1-.5,1.4,3.335,3.335,0,0,1-.693.91,3,3,0,0,1-.784.518,3.059,3.059,0,0,1-.77.231,4.43,4.43,0,0,1-.651.056,4.43,4.43,0,0,1-.651-.056,3.059,3.059,0,0,1-.77-.231,3,3,0,0,1-.784-.518,3.335,3.335,0,0,1-.693-.91,5.484,5.484,0,0,1-.5-1.4A9.21,9.21,0,0,1,8.848-4.956Zm1.68,0a10.561,10.561,0,0,0,.063,1.071A4.9,4.9,0,0,0,10.85-2.73a2.461,2.461,0,0,0,.574.924,1.362,1.362,0,0,0,1.008.378,1.362,1.362,0,0,0,1.008-.378,2.461,2.461,0,0,0,.574-.924,4.9,4.9,0,0,0,.259-1.155,10.561,10.561,0,0,0,.063-1.071,10.561,10.561,0,0,0-.063-1.071,4.9,4.9,0,0,0-.259-1.155,2.461,2.461,0,0,0-.574-.924,1.362,1.362,0,0,0-1.008-.378,1.362,1.362,0,0,0-1.008.378,2.461,2.461,0,0,0-.574.924,4.9,4.9,0,0,0-.259,1.155A10.561,10.561,0,0,0,10.528-4.956Z" transform="translate(1241.723 1364.75)" fill="#f15922"/>
      <g id="Group_7884" data-name="Group 7884" transform="translate(20525.723 19385.75)">
        <circle id="Ellipse_398-15" data-name="Ellipse 398" cx="4" cy="4" r="4" transform="translate(-19280 -18016) rotate(90)" fill="#f15922" opacity="0.3"/>
        <circle id="Ellipse_399-15" data-name="Ellipse 399" cx="2" cy="2" r="2" transform="translate(-19282 -18014) rotate(90)" fill="#f15922"/>
      </g>
    </g>
  </g>
</svg>
