<svg xmlns="http://www.w3.org/2000/svg" width="627" height="42" viewBox="0 0 627 42">
  <g id="Group_7888" data-name="Group 7888" transform="translate(-528 -1441.5)">
    <text id="FY1997" transform="translate(540 1462.5) rotate(-90)" fill="#2b2b33" font-size="12" font-family="Avenir-Roman, Avenir"><tspan x="-20.244" y="0">FY1997</tspan></text>
    <text id="FY2006" transform="translate(584 1462.5) rotate(-90)" fill="#2b2b33" font-size="12" font-family="Avenir-Roman, Avenir"><tspan x="-20.244" y="0">FY2006</tspan></text>
    <text id="FY2010" transform="translate(627 1462.5) rotate(-90)" fill="#2b2b33" font-size="12" font-family="Avenir-Roman, Avenir"><tspan x="-20.244" y="0">FY2010</tspan></text>
    <text id="FY2011" transform="translate(671 1462.5) rotate(-90)" fill="#2b2b33" font-size="12" font-family="Avenir-Roman, Avenir"><tspan x="-20.244" y="0">FY2011</tspan></text>
    <text id="FY2012" transform="translate(715 1462.5) rotate(-90)" fill="#2b2b33" font-size="12" font-family="Avenir-Roman, Avenir"><tspan x="-20.244" y="0">FY2012</tspan></text>
    <text id="FY2013" transform="translate(758 1462.5) rotate(-90)" fill="#2b2b33" font-size="12" font-family="Avenir-Roman, Avenir"><tspan x="-20.244" y="0">FY2013</tspan></text>
    <text id="FY2014" transform="translate(802 1462.5) rotate(-90)" fill="#2b2b33" font-size="12" font-family="Avenir-Roman, Avenir"><tspan x="-20.244" y="0">FY2014</tspan></text>
    <text id="FY2015" transform="translate(846 1462.5) rotate(-90)" fill="#2b2b33" font-size="12" font-family="Avenir-Roman, Avenir"><tspan x="-20.244" y="0">FY2015</tspan></text>
    <text id="FY2016" transform="translate(889 1462.5) rotate(-90)" fill="#2b2b33" font-size="12" font-family="Avenir-Roman, Avenir"><tspan x="-20.244" y="0">FY2016</tspan></text>
    <text id="FY2017" transform="translate(933 1462.5) rotate(-90)" fill="#2b2b33" font-size="12" font-family="Avenir-Roman, Avenir"><tspan x="-20.244" y="0">FY2017</tspan></text>
    <text id="FY2018" transform="translate(976 1462.5) rotate(-90)" fill="#2b2b33" font-size="12" font-family="Avenir-Roman, Avenir"><tspan x="-20.244" y="0">FY2018</tspan></text>
    <text id="FY2019" transform="translate(1020 1462.5) rotate(-90)" fill="#2b2b33" font-size="12" font-family="Avenir-Roman, Avenir"><tspan x="-20.244" y="0">FY2019</tspan></text>
    <text id="FY2020" transform="translate(1064 1462.5) rotate(-90)" fill="#2b2b33" font-size="12" font-family="Avenir-Roman, Avenir"><tspan x="-20.244" y="0">FY2020</tspan></text>
    <text id="FY2021" transform="translate(1107 1462.5) rotate(-90)" fill="#2b2b33" font-size="12" font-family="Avenir-Roman, Avenir"><tspan x="-20.244" y="0">FY2021</tspan></text>
    <text id="FY2022" transform="translate(1151 1462.5) rotate(-90)" fill="#2b2b33" font-size="12" font-family="Avenir-Roman, Avenir"><tspan x="-20.244" y="0">FY2022</tspan></text>
  </g>
</svg>
