<svg xmlns="http://www.w3.org/2000/svg" width="612" height="361.749" viewBox="0 0 612 361.749">
  <g id="Group_7925" data-name="Group 7925" transform="translate(-630.223 -1245.5)">
    <path id="Path_30324" data-name="Path 30324" d="M-9121-9217.311v-3.259" transform="translate(9751.723 10824.56)" fill="none" stroke="#f15922" stroke-width="1"/>
    <path id="Path_30313" data-name="Path 30313" d="M-9121-9215.705v-4.863" transform="translate(9795.723 10822.455)" fill="none" stroke="#f15922" stroke-width="1"/>
    <path id="Path_30314" data-name="Path 30314" d="M-9121-9189.937v-30.63" transform="translate(9838.723 10796.818)" fill="none" stroke="#f15922" stroke-width="1"/>
    <path id="Path_30315" data-name="Path 30315" d="M-9121-9184.813v-35.754" transform="translate(9882.723 10791.748)" fill="none" stroke="#f15922" stroke-width="1"/>
    <path id="Path_30316" data-name="Path 30316" d="M-9121-9171.214V-9236.6" transform="translate(9927.723 10778.251)" fill="none" stroke="#f15922" stroke-width="1"/>
    <path id="Path_30317" data-name="Path 30317" d="M-9121-9153.014v-67.549" transform="translate(9969.723 10760.059)" fill="none" stroke="#f15922" stroke-width="1"/>
    <path id="Path_30318" data-name="Path 30318" d="M-9121-9149.649v-70.922" transform="translate(10013.723 10756.559)" fill="none" stroke="#f15922" stroke-width="1"/>
    <path id="Path_30319" data-name="Path 30319" d="M-9121-9144.881v-75.682" transform="translate(10058.723 10751.807)" fill="none" stroke="#f15922" stroke-width="1"/>
    <path id="Path_30320" data-name="Path 30320" d="M-9121-9069.553v-151.01" transform="translate(10100.723 10676.461)" fill="none" stroke="#f15922" stroke-width="1"/>
    <path id="Path_30321" data-name="Path 30321" d="M-9121-9038.556v-182.037" transform="translate(10144.723 10645.033)" fill="none" stroke="#f15922" stroke-width="1"/>
    <path id="Path_30322" data-name="Path 30322" d="M-9121-8891.437v-329.125" transform="translate(10188.723 10498.031)" fill="none" stroke="#f15922" stroke-width="1"/>
    <path id="Path_30322-2" data-name="Path 30322" d="M-9121-8859.5v-361.066" transform="translate(10232.723 10466.063)" fill="none" stroke="#f15922" stroke-width="1"/>
    <path id="Path_30322-3" data-name="Path 30322" d="M-9121-8920.641v-299.922" transform="translate(10275.723 10527.535)" fill="none" stroke="#f15922" stroke-width="1"/>
    <path id="Path_30322-4" data-name="Path 30322" d="M-9121-8982.812v-237.752" transform="translate(10318.723 10589.301)" fill="none" stroke="#f15922" stroke-width="1"/>
    <path id="Path_30322-5" data-name="Path 30322" d="M-9121-8988.68v-231.883" transform="translate(10362.723 10595.588)" fill="none" stroke="#f15922" stroke-width="1"/>
  </g>
</svg>
