<svg xmlns="http://www.w3.org/2000/svg" width="21.125" height="21" viewBox="0 0 21.125 21"><g transform="translate(0.5 0.5)"><path d="M20.126,21.82v7.738H15.812v-7.22c0-1.814-.624-3.051-2.185-3.051a2.372,2.372,0,0,0-2.213,1.641,3.183,3.183,0,0,0-.143,1.094v7.536H6.955s.058-12.228,0-13.495H11.27v1.913c-.009.014-.02.03-.028.044h.028v-.044a4.262,4.262,0,0,1,3.888-2.23C18,15.746,20.126,17.675,20.126,21.82ZM2.442,9.558a2.334,2.334,0,1,0-.057,4.664h.029a2.334,2.334,0,1,0,.028-4.664Zm-2.185,20H4.57V16.063H.256Z" transform="translate(0 -9.558)" fill="none" stroke="#fff" stroke-width="1"/></g></svg>