<svg width="512" height="512" viewBox="0 0 512 512" fill="none" xmlns="http://www.w3.org/2000/svg">
<path d="M479.5 504.5H343.1C329.3 504.5 318.1 493.3 318.1 479.5V343.1C318.1 329.3 329.3 318.1 343.1 318.1H479.5C493.3 318.1 504.5 329.3 504.5 343.1V479.5C504.5 493.3 493.3 504.5 479.5 504.5Z" stroke="#F15922" stroke-width="10" stroke-miterlimit="10" stroke-linecap="round" stroke-linejoin="round"/>
<path d="M199.6 271.5H210.9V327.9H256V215.1L199.6 271.5Z" stroke="#676866" stroke-width="10" stroke-miterlimit="10" stroke-linecap="round" stroke-linejoin="round"/>
<path d="M254.199 327.9H302.199V267.9" stroke="#676866" stroke-width="10" stroke-miterlimit="10" stroke-linecap="round" stroke-linejoin="round"/>
<path d="M256 271.5H312.4L256 215.1" stroke="#676866" stroke-width="10" stroke-miterlimit="10" stroke-linecap="round" stroke-linejoin="round"/>
<path d="M278.6 215.1V327.9" stroke="#676866" stroke-width="10" stroke-miterlimit="10" stroke-linecap="round" stroke-linejoin="round"/>
<path d="M278.6 294.1H301.1" stroke="#676866" stroke-width="10" stroke-miterlimit="10" stroke-linecap="round" stroke-linejoin="round"/>
<path d="M256 327.9H233.4V294.1C233.4 288.1 238.3 283.2 244.3 283.2H256V327.9Z" stroke="#676866" stroke-width="10" stroke-miterlimit="10" stroke-linecap="round" stroke-linejoin="round"/>
<path d="M162.801 80.3V32.5C162.801 18.7 174.001 7.5 187.801 7.5H324.201C338.001 7.5 349.201 18.7 349.201 32.5V168.9C349.201 182.7 338.001 193.9 324.201 193.9H187.801C174.001 193.9 162.801 182.7 162.801 168.9V79.3" stroke="#F15922" stroke-width="10" stroke-miterlimit="10" stroke-linecap="round" stroke-linejoin="round"/>
<path d="M314.1 89.1L306.2 85.2C305.2 82 304 79 302.4 76.1L305.2 67.7C306.1 65.1 305.4 62.2 303.4 60.3L296.2 53.1C294.3 51.2 291.4 50.5 288.8 51.3L280.4 54.1C277.5 52.6 274.5 51.3 271.3 50.3L267.4 42.4C266.2 39.9 263.7 38.4 260.9 38.4H250.7C248 38.4 245.4 40 244.2 42.4L240.3 50.3C237.1 51.3 234.1 52.5 231.2 54.1L222.8 51.3C220.2 50.4 217.3 51.1 215.4 53.1L208.2 60.3C206.3 62.2 205.6 65.1 206.4 67.7L209.2 76.1C207.7 79 206.4 82 205.4 85.2L197.5 89.1C195 90.3 193.5 92.8 193.5 95.6V105.8C193.5 108.5 195.1 111.1 197.5 112.3L205.4 116.2C206.4 119.4 207.6 122.4 209.2 125.3L206.4 133.7C205.5 136.3 206.2 139.2 208.2 141.1L215.4 148.3C217.3 150.2 220.2 150.9 222.8 150.1L231.2 147.3C234.1 148.8 237.1 150.1 240.3 151.1L244.2 159C245.4 161.5 247.9 163 250.7 163H260.9C263.6 163 266.2 161.4 267.4 159L271.3 151.1C274.5 150.1 277.5 148.9 280.4 147.3L288.8 150.1C291.4 151 294.3 150.3 296.2 148.3L303.4 141.1C305.3 139.2 306 136.3 305.2 133.7L302.4 125.3C303.9 122.4 305.2 119.4 306.2 116.2L314.1 112.3C316.6 111.1 318.1 108.6 318.1 105.8V95.6C318.1 92.9 316.6 90.4 314.1 89.1ZM256 116.2C247.4 116.2 240.5 109.2 240.5 100.7C240.5 92.1 247.5 85.2 256 85.2C264.6 85.2 271.5 92.2 271.5 100.7C271.5 109.2 264.6 116.2 256 116.2Z" stroke="#F15922" stroke-width="10" stroke-miterlimit="10" stroke-linecap="round" stroke-linejoin="round"/>
<path d="M42.4 318.1H32.5C18.7 318.1 7.5 329.3 7.5 343.1V479.5C7.5 493.3 18.7 504.5 32.5 504.5H168.9C182.7 504.5 193.9 493.3 193.9 479.5V343.1C193.9 329.3 182.7 318.1 168.9 318.1H42.9" stroke="#F15922" stroke-width="10" stroke-miterlimit="10" stroke-linecap="round" stroke-linejoin="round"/>
<path d="M85.1992 442.4V473.4H116.199V442.4" stroke="#F15922" stroke-width="10" stroke-miterlimit="10" stroke-linecap="round" stroke-linejoin="round"/>
<path d="M119.5 442.4H81.9004C70.9004 442.4 61.9004 433.4 61.9004 422.4V380.3H139.6V422.4C139.5 433.4 130.6 442.4 119.5 442.4Z" stroke="#F15922" stroke-width="10" stroke-miterlimit="10" stroke-linecap="round" stroke-linejoin="round"/>
<path d="M54.0996 380.2H147.3" stroke="#F15922" stroke-width="10" stroke-miterlimit="10" stroke-linecap="round" stroke-linejoin="round"/>
<path d="M124 349.2V380.2" stroke="#F15922" stroke-width="10" stroke-miterlimit="10" stroke-linecap="round" stroke-linejoin="round"/>
<path d="M77.4004 380.2V349.2" stroke="#F15922" stroke-width="10" stroke-miterlimit="10" stroke-linecap="round" stroke-linejoin="round"/>
<path d="M473.4 395.8V457.9" stroke="#F15922" stroke-width="10" stroke-miterlimit="10" stroke-linecap="round" stroke-linejoin="round"/>
<path d="M473.399 411.3H438.199C432.799 402 422.799 395.8 411.299 395.8C399.799 395.8 389.799 402 384.399 411.3H379.199C362.599 411.3 349.199 424.7 349.199 441.3V457.9H380.299V442.4H384.499C389.899 451.7 399.899 457.9 411.399 457.9C422.899 457.9 432.899 451.7 438.299 442.4H473.499L473.399 411.3Z" stroke="#F15922" stroke-width="10" stroke-miterlimit="10" stroke-linecap="round" stroke-linejoin="round"/>
<path d="M411.301 395.8V364.7" stroke="#F15922" stroke-width="10" stroke-miterlimit="10" stroke-linecap="round" stroke-linejoin="round"/>
<path d="M388 364.7H434.6" stroke="#F15922" stroke-width="10" stroke-miterlimit="10" stroke-linecap="round" stroke-linejoin="round"/>
<path d="M193.9 379.2C212.2 389.8 233.4 395.8 256 395.8C278.6 395.8 299.8 389.7 318.1 379.2" stroke="#F15922" stroke-width="10" stroke-miterlimit="10" stroke-linecap="round" stroke-linejoin="round"/>
<path d="M167.901 183.9C145.601 206.4 131.801 237.3 131.801 271.5C131.801 288 135.001 303.7 140.801 318.1" stroke="#F15922" stroke-width="10" stroke-miterlimit="10" stroke-linecap="round" stroke-linejoin="round"/>
<path d="M362.7 207.9C357.5 199.2 351.2 191.1 344.1 183.9" stroke="#F15922" stroke-width="10" stroke-miterlimit="10" stroke-linecap="round" stroke-linejoin="round"/>
<path d="M371.199 318.1C376.999 303.7 380.199 288 380.199 271.5C380.199 260.8 378.799 250.4 376.299 240.4" stroke="#F15922" stroke-width="10" stroke-miterlimit="10" stroke-linecap="round" stroke-linejoin="round"/>
<path d="M101 416C103.761 416 106 413.761 106 411C106 408.239 103.761 406 101 406C98.2386 406 96 408.239 96 411C96 413.761 98.2386 416 101 416Z" fill="#F15922"/>
</svg>
