<svg xmlns="http://www.w3.org/2000/svg" width="37.844" height="37.5" viewBox="0 0 37.844 37.5"><g transform="translate(-0.051 -0.25)"><path d="M3.411,15.123a2.411,2.411,0,1,1,0-4.823" transform="translate(0.144 6.719)" fill="none" stroke="#f15922" stroke-linecap="round" stroke-miterlimit="10" stroke-width="1.5"/><path d="M2.4,18.568V11.334A4.192,4.192,0,0,1,6.534,7.2H9.118V22.7H6.534A4.192,4.192,0,0,1,2.4,18.568Z" transform="translate(1.156 4.479)" fill="none" stroke="#f15922" stroke-linecap="round" stroke-miterlimit="10" stroke-width="1.5"/><path d="M21.262,37h0A3.9,3.9,0,0,1,17.3,33.038V4.962A3.9,3.9,0,0,1,21.262,1h0a3.9,3.9,0,0,1,3.962,3.962V33.038A3.9,3.9,0,0,1,21.262,37Z" transform="translate(11.921)" fill="none" stroke="#f15922" stroke-linecap="round" stroke-miterlimit="10" stroke-width="1.5"/><path d="M5.8,10.09S17.857,9.4,25.781,3.2" transform="translate(3.612 1.589)" fill="none" stroke="#f15922" stroke-linecap="round" stroke-miterlimit="10" stroke-width="1.5"/><path d="M5.8,10.09S17.857,9.4,25.781,3.2" transform="translate(3.612 1.589)" fill="none" stroke="#f15922" stroke-linecap="round" stroke-miterlimit="10" stroke-width="1.5"/><path d="M5.8,16.2s12.057.689,19.981,6.89" transform="translate(3.612 10.982)" fill="none" stroke="#f15922" stroke-linecap="round" stroke-miterlimit="10" stroke-width="1.5"/><path d="M3.1,16l.689,2.067.861,3.1a1.172,1.172,0,0,0,1.378.689h0a1.172,1.172,0,0,0,.689-1.378L5.684,16.861Z" transform="translate(1.662 10.837)" fill="none" stroke="#f15922" stroke-linecap="round" stroke-miterlimit="10" stroke-width="1.5"/><path d="M3.556,15.612h0A2.721,2.721,0,0,1,.8,12.856h0A2.721,2.721,0,0,1,3.556,10.1h0a2.721,2.721,0,0,1,2.756,2.756h0A2.721,2.721,0,0,1,3.556,15.612Z" transform="translate(0 6.575)" fill="#414042" stroke="#414042" stroke-linecap="round" stroke-miterlimit="10" stroke-width="1.5"/></g></svg>