<svg width="512" height="512" viewBox="0 0 512 512" fill="none" xmlns="http://www.w3.org/2000/svg">
<path d="M111.1 222.8H67.0996V249.8H111.1V222.8Z" stroke="#F15922" stroke-width="10" stroke-miterlimit="10" stroke-linecap="round" stroke-linejoin="round"/>
<path d="M111.1 276.8H67.0996V356.8H111.1V276.8Z" stroke="#F15922" stroke-width="10" stroke-miterlimit="10" stroke-linecap="round" stroke-linejoin="round"/>
<path d="M153 103.2H118H92.0996C78.2996 103.2 67.0996 114.4 67.0996 128.2V195.7H111.1V152.2C111.1 149.4 113.3 147.2 116.1 147.2H183.7C181.6 140.2 180.5 132.9 180.5 125.2C180.5 117.5 181.6 110.2 183.7 103.2H153Z" stroke="#F15922" stroke-width="10" stroke-miterlimit="10" stroke-linecap="round" stroke-linejoin="round"/>
<path d="M444.899 138V128.2C444.899 114.4 433.699 103.2 419.899 103.2H329.299C331.399 110.2 332.499 117.5 332.499 125.2C332.499 132.9 331.399 140.2 329.299 147.2H395.899C398.699 147.2 400.899 149.4 400.899 152.2V195.7H444.899V173" stroke="#F15922" stroke-width="10" stroke-miterlimit="10" stroke-linecap="round" stroke-linejoin="round"/>
<path d="M444.898 222.8H400.898V249.8H444.898V222.8Z" stroke="#F15922" stroke-width="10" stroke-miterlimit="10" stroke-linecap="round" stroke-linejoin="round"/>
<path d="M444.898 276.8H400.898V356.8H444.898V276.8Z" stroke="#F15922" stroke-width="10" stroke-miterlimit="10" stroke-linecap="round" stroke-linejoin="round"/>
<path d="M63.0996 195.8H115.1C117.9 195.8 120.1 198 120.1 200.8V217.8C120.1 220.6 117.9 222.8 115.1 222.8H63.0996C60.2996 222.8 58.0996 220.6 58.0996 217.8V200.8C58.0996 198 60.2996 195.8 63.0996 195.8Z" stroke="#F15922" stroke-width="10" stroke-miterlimit="10" stroke-linecap="round" stroke-linejoin="round"/>
<path d="M63.0996 249.8H115.1C117.9 249.8 120.1 252 120.1 254.8V271.8C120.1 274.6 117.9 276.8 115.1 276.8H63.0996C60.2996 276.8 58.0996 274.6 58.0996 271.8V254.8C58.0996 252 60.2996 249.8 63.0996 249.8Z" stroke="#F15922" stroke-width="10" stroke-miterlimit="10" stroke-linecap="round" stroke-linejoin="round"/>
<path d="M448.9 195.8H396.9C394.1 195.8 391.9 198 391.9 200.8V217.8C391.9 220.6 394.1 222.8 396.9 222.8H448.9C451.7 222.8 453.9 220.6 453.9 217.8V200.8C453.9 198 451.7 195.8 448.9 195.8Z" stroke="#F15922" stroke-width="10" stroke-miterlimit="10" stroke-linecap="round" stroke-linejoin="round"/>
<path d="M448.9 249.8H396.9C394.1 249.8 391.9 252 391.9 254.8V271.8C391.9 274.6 394.1 276.8 396.9 276.8H448.9C451.7 276.8 453.9 274.6 453.9 271.8V254.8C453.9 252 451.7 249.8 448.9 249.8Z" stroke="#F15922" stroke-width="10" stroke-miterlimit="10" stroke-linecap="round" stroke-linejoin="round"/>
<path d="M307.5 245.2H278.5V270.2H307.5V245.2Z" stroke="#F15922" stroke-width="10" stroke-miterlimit="10" stroke-linecap="round" stroke-linejoin="round"/>
<path d="M234.5 245.2H213.5C210.7 245.2 208.5 247.4 208.5 250.2V265.2C208.5 268 210.7 270.2 213.5 270.2H234.5V245.2Z" stroke="#F15922" stroke-width="10" stroke-miterlimit="10" stroke-linecap="round" stroke-linejoin="round"/>
<path d="M241.1 199.7V227.8H271.9V199.7C266.9 200.7 261.8 201.3 256.5 201.3C251.2 201.3 246.1 200.7 241.1 199.7Z" stroke="#F15922" stroke-width="10" stroke-miterlimit="10" stroke-linecap="round" stroke-linejoin="round"/>
<path d="M273.5 227.8H239.5C236.7 227.8 234.5 230 234.5 232.8V340.8H278.5V232.8C278.5 230 276.3 227.8 273.5 227.8Z" stroke="#F15922" stroke-width="10" stroke-miterlimit="10" stroke-linecap="round" stroke-linejoin="round"/>
<path d="M207.5 436.8H305.5" stroke="#F15922" stroke-width="10" stroke-miterlimit="10" stroke-linecap="round" stroke-linejoin="round"/>
<path d="M305.5 340.8H207.5" stroke="#F15922" stroke-width="10" stroke-miterlimit="10" stroke-linecap="round" stroke-linejoin="round"/>
<path d="M468.5 356.8H377.5V420.8H468.5V356.8Z" stroke="#F15922" stroke-width="10" stroke-miterlimit="10" stroke-linecap="round" stroke-linejoin="round"/>
<path d="M315.5 462.8H331.5C337 462.8 341.5 458.3 341.5 452.8V324.8C341.5 319.3 337 314.8 331.5 314.8H315.5C310 314.8 305.5 319.3 305.5 324.8V452.8C305.5 458.3 310 462.8 315.5 462.8Z" stroke="#F15922" stroke-width="10" stroke-miterlimit="10" stroke-linecap="round" stroke-linejoin="round"/>
<path d="M367.5 462.8H351.5C346 462.8 341.5 458.3 341.5 452.8V324.8C341.5 319.3 346 314.8 351.5 314.8H367.5C373 314.8 377.5 319.3 377.5 324.8V452.8C377.5 458.3 373 462.8 367.5 462.8Z" stroke="#F15922" stroke-width="10" stroke-miterlimit="10" stroke-linecap="round" stroke-linejoin="round"/>
<path d="M135.5 356.8H43.5V420.8H135.5V356.8Z" stroke="#F15922" stroke-width="10" stroke-miterlimit="10" stroke-linecap="round" stroke-linejoin="round"/>
<path d="M207.5 364V324.8C207.5 319.3 203 314.8 197.5 314.8H181.5C176 314.8 171.5 319.3 171.5 324.8V452.8C171.5 458.3 176 462.8 181.5 462.8H197.5C203 462.8 207.5 458.3 207.5 452.8V399" stroke="#F15922" stroke-width="10" stroke-miterlimit="10" stroke-linecap="round" stroke-linejoin="round"/>
<path d="M145.5 462.8H161.5C167 462.8 171.5 458.3 171.5 452.8V324.8C171.5 319.3 167 314.8 161.5 314.8H145.5C140 314.8 135.5 319.3 135.5 324.8V452.8C135.5 458.3 140 462.8 145.5 462.8Z" stroke="#F15922" stroke-width="10" stroke-miterlimit="10" stroke-linecap="round" stroke-linejoin="round"/>
<path d="M499.5 428.8H473.5C470.7 428.8 468.5 426.6 468.5 423.8V353.8C468.5 351 470.7 348.8 473.5 348.8H499.5C502.3 348.8 504.5 351 504.5 353.8V423.8C504.5 426.5 502.3 428.8 499.5 428.8Z" stroke="#F15922" stroke-width="10" stroke-miterlimit="10" stroke-linecap="round" stroke-linejoin="round"/>
<path d="M38.5 428.8H12.5C9.7 428.8 7.5 426.6 7.5 423.8V353.8C7.5 351 9.7 348.8 12.5 348.8H38.5C41.3 348.8 43.5 351 43.5 353.8V423.8C43.5 426.5 41.3 428.8 38.5 428.8Z" stroke="#F15922" stroke-width="10" stroke-miterlimit="10" stroke-linecap="round" stroke-linejoin="round"/>
<path d="M256.5 201.2C298.474 201.2 332.5 167.174 332.5 125.2C332.5 83.2264 298.474 49.2 256.5 49.2C214.526 49.2 180.5 83.2264 180.5 125.2C180.5 167.174 214.526 201.2 256.5 201.2Z" stroke="#F15922" stroke-width="10" stroke-miterlimit="10" stroke-linecap="round" stroke-linejoin="round"/>
<path d="M222.599 159.2C203.899 140.5 203.899 110 222.599 91.3C241.299 72.6 271.799 72.6 290.499 91.3C309.199 110 309.199 140.5 290.499 159.2" stroke="#676866" stroke-width="10" stroke-miterlimit="10" stroke-linecap="round" stroke-linejoin="round"/>
<path d="M256.5 140.2C264.784 140.2 271.5 133.484 271.5 125.2C271.5 116.916 264.784 110.2 256.5 110.2C248.216 110.2 241.5 116.916 241.5 125.2C241.5 133.484 248.216 140.2 256.5 140.2Z" stroke="#676866" stroke-width="10" stroke-miterlimit="10" stroke-linecap="round" stroke-linejoin="round"/>
<path d="M270.801 171.1C258.301 175 244.401 173.6 232.801 167" stroke="#676866" stroke-width="10" stroke-miterlimit="10" stroke-linecap="round" stroke-linejoin="round"/>
<path d="M307.5 282.8V232.8C307.5 230 309.7 227.8 312.5 227.8H327.5C330.3 227.8 332.5 230 332.5 232.8V282.8C332.5 285.6 330.3 287.8 327.5 287.8H312.5C309.7 287.8 307.5 285.5 307.5 282.8Z" stroke="#F15922" stroke-width="10" stroke-miterlimit="10" stroke-linecap="round" stroke-linejoin="round"/>
<path d="M256.5 110.2V69.6" stroke="#676866" stroke-width="10" stroke-miterlimit="10" stroke-linecap="round" stroke-linejoin="round"/>
<path d="M256.5 147.1V140.2" stroke="#676866" stroke-width="10" stroke-miterlimit="10" stroke-linecap="round" stroke-linejoin="round"/>
</svg>
