<svg width="512" height="512" viewBox="0 0 512 512" fill="none" xmlns="http://www.w3.org/2000/svg">
<path d="M326.201 64.3V39.3C326.201 21.7 312.001 7.5 294.401 7.5H47.6008C30.0008 7.5 15.8008 21.8 15.8008 39.3V233.2C15.8008 250.8 30.0008 265 47.6008 265H87.9008" stroke="#000000" stroke-width="10" stroke-miterlimit="10" stroke-linecap="round" stroke-linejoin="round"/>
<path d="M254 265H294.3C311.9 265 326.1 250.8 326.1 233.2V99.4" stroke="#000000" stroke-width="10" stroke-miterlimit="10" stroke-linecap="round" stroke-linejoin="round"/>
<path d="M222.401 224.5C252.701 206.8 273.101 173.9 273.101 136.3C273.101 79.9 227.401 34.1 171.001 34.1C114.601 34.1 68.8008 79.8 68.8008 136.3C68.8008 173.9 89.2008 206.8 119.501 224.5" stroke="#000000" stroke-width="10" stroke-miterlimit="10" stroke-linecap="round" stroke-linejoin="round"/>
<path d="M220.4 112.3V137.2" stroke="#000000" stroke-width="10" stroke-miterlimit="10" stroke-linecap="round" stroke-linejoin="round"/>
<path d="M121.5 112.3V137.2" stroke="#000000" stroke-width="10" stroke-miterlimit="10" stroke-linecap="round" stroke-linejoin="round"/>
<path d="M146.5 375.9H195.5C227.9 375.9 254.1 349.7 254.1 317.3V237.9C254.1 230.5 248.1 224.5 240.7 224.5H101.3C93.9004 224.5 87.9004 230.5 87.9004 237.9V317.3C87.9004 349.7 114.1 375.9 146.5 375.9Z" stroke="#000000" stroke-width="10" stroke-miterlimit="10" stroke-linecap="round" stroke-linejoin="round"/>
<path d="M220.4 174.8V224.5" stroke="#000000" stroke-width="10" stroke-miterlimit="10" stroke-linecap="round" stroke-linejoin="round"/>
<path d="M121.5 174.8V224.5" stroke="#000000" stroke-width="10" stroke-miterlimit="10" stroke-linecap="round" stroke-linejoin="round"/>
<path d="M149.301 224.5H192.601V297C192.601 309 182.901 318.7 170.901 318.7C158.901 318.7 149.201 309 149.201 297L149.301 224.5Z" stroke="#000000" stroke-width="10" stroke-miterlimit="10" stroke-linecap="round" stroke-linejoin="round"/>
<path d="M155.799 411.2V460.9C155.799 484.9 175.399 504.5 199.399 504.5H234.399C250.999 504.5 266.499 498.1 278.199 486.3L345.099 419.4C357.399 407.1 377.399 407.1 389.699 419.4L470.299 500C473.199 502.9 476.999 504.5 481.099 504.5C494.699 504.5 501.399 488.1 491.899 478.5L411.199 398C386.999 373.8 347.699 373.8 323.499 398L256.599 464.9C250.699 470.8 242.699 474.1 234.299 474.1H199.299C191.999 474.1 186.099 468.2 186.099 460.9V375.9H155.699" stroke="#000000" stroke-width="10" stroke-miterlimit="10" stroke-linecap="round" stroke-linejoin="round"/>
<path d="M461.099 79H421.899V13.1C421.899 7 413.499 5.29999 411.199 10.9L372.399 103.8C369.299 111.2 374.699 119.3 382.699 119.3H421.899V185.2C421.899 191.3 430.299 193 432.599 187.4L471.399 94.5C474.499 87.2 469.099 79 461.099 79Z" stroke="#676866" stroke-width="10" stroke-miterlimit="10" stroke-linecap="round" stroke-linejoin="round"/>
<path d="M171 161C173.761 161 176 158.761 176 156C176 153.239 173.761 151 171 151C168.239 151 166 153.239 166 156C166 158.761 168.239 161 171 161Z" fill="#F15922"/>
</svg>
