<svg xmlns="http://www.w3.org/2000/svg" width="25.051" height="25.495" viewBox="0 0 25.051 25.495">
  <g id="Group_8255" data-name="Group 8255" transform="translate(-1201.455 -677.839)">
    <path id="Path_30597" data-name="Path 30597" d="M1214.62,678.339" fill="none" stroke="#000000" stroke-linecap="round" stroke-miterlimit="10" stroke-width="1"/>
    <path id="Path_30598" data-name="Path 30598" d="M1206.681,696.389" transform="translate(0 2)" fill="none" stroke="#000000" stroke-linecap="round" stroke-miterlimit="10" stroke-width="1"/>
    <path id="Path_30599" data-name="Path 30599" d="M1213.62,698.03h10.329a2.1,2.1,0,0,0,2.005-2.176l.051-15.273a2.1,2.1,0,0,0-1.995-2.187l-20-.055a2.1,2.1,0,0,0-2.005,2.176l-.05,15.273a2.1,2.1,0,0,0,1.995,2.187h3.91l.059,4.364Z" fill="none" stroke="#000000" stroke-linecap="round" stroke-miterlimit="10" stroke-width="1"/>
    <g id="Group_8254" data-name="Group 8254" transform="translate(1206.648 686.144)">
      <circle id="Ellipse_638" data-name="Ellipse 638" cx="1" cy="1" r="1" transform="translate(3 1)" fill="#606060"/>
      <circle id="Ellipse_639" data-name="Ellipse 639" cx="1" cy="1" r="1" transform="translate(6.972 1)" fill="#606060"/>
      <circle id="Ellipse_640" data-name="Ellipse 640" cx="1" cy="1" r="1" transform="translate(10.944 1)" fill="#606060"/>
    </g>
  </g>
</svg>
